<?xml version="1.0" encoding="utf-8"?>
<!-- Generator: Adobe Illustrator 19.1.0, SVG Export Plug-In . SVG Version: 6.00 Build 0)  -->
<svg version="1.1" id="Layer_1" xmlns="http://www.w3.org/2000/svg" xmlns:xlink="http://www.w3.org/1999/xlink" x="0px" y="0px"
	 viewBox="-126 218 358 358" style="enable-background:new -126 218 358 358;" xml:space="preserve">
<style type="text/css">
	.st0{fill:#FFCC03;}
	.st1{fill:#FFCE0B;}
	.st2{fill:#FFCE0F;}
</style>
<path class="st0" d="M-88.4,265.1h283c0,0,21.7,10.5,5,29v33.7c0,0-11.7,18.3-24.3,0c0,0-12.8,17.5-25,0c0,0-11.5,19.3-24.3,0
	c0,0-11.8,18.7-24,0c0,0-11.2,18.6-25,0c0,0-10,18.4-23.8,0c0,0-12.5,18.9-24.3,0c0,0-12.5,18.7-24.8,0c0,0-11,19.5-24,0
	c0,0-10.6,18.8-24.8,0c0,0-11.8,18.8-24.4,0c0,0-12.5,18.2-23,0v-33.4C-92.2,294.4-111.8,277.3-88.4,265.1z"/>
<circle class="st0" cx="94.6" cy="374.1" r="17.5"/>
<path class="st0" d="M108.6,398.1v16.8H80.3v-16.8c0,0-22.8-0.8-29.8,55h11.5c0,0,3.4-24.5,10.1-32.1v32.1h44.7V421
	c0,0,8.8,9.3,9.7,31.7h12C133.2,396.6,108.6,398.1,108.6,398.1z"/>
<rect x="84.6" y="398.1" class="st0" width="19.8" height="15"/>
<rect x="-62.9" y="328.6" class="st0" width="9.8" height="135.3"/>
<rect x="159.6" y="328.6" class="st0" width="9.8" height="135.3"/>
<path class="st1" d="M179.9,456.8H-72.7c-0.9,0-1.7,0.8-1.7,1.7v96c0,0.9,0.8,1.7,1.7,1.7h252.6c0.9,0,1.7-0.8,1.7-1.7v-96
	C181.6,457.5,180.8,456.8,179.9,456.8z M31.9,544.1c0,0.9-0.8,1.7-1.7,1.7h-89.3c-0.9,0-1.7-0.8-1.7-1.7v-71.9
	c0-0.9,0.8-1.7,1.7-1.7h89.3c0.9,0,1.7,0.8,1.7,1.7V544.1z"/>
<path class="st2" d="M-42.4,378v74.8h65.7V378H-42.4z M15.6,443.8h-50.3v-57.4h50.3V443.8z"/>
<rect x="-37.2" y="413" class="st2" width="55.3" height="6.5"/>
<rect x="-14.3" y="392" class="st2" width="8.9" height="17.3"/>
<rect x="-2.4" y="392" class="st2" width="13.1" height="16.9"/>
<rect x="-24.4" y="425" class="st2" width="35.1" height="6.2"/>
<rect x="-24.4" y="434.1" class="st2" width="35.1" height="6.2"/>
<rect x="-21.4" y="477" class="st2" width="46.1" height="6.2"/>
<rect x="-53.4" y="477" class="st2" width="23.1" height="6.2"/>
<rect x="-21.4" y="491" class="st2" width="46.1" height="6.2"/>
<rect x="-53.4" y="491" class="st2" width="23.1" height="6.2"/>
<rect x="-21.4" y="505" class="st2" width="46.1" height="6.2"/>
<rect x="-53.4" y="505" class="st2" width="23.1" height="6.2"/>
<rect x="-21.4" y="519" class="st2" width="46.1" height="6.2"/>
<rect x="-53.4" y="519" class="st2" width="23.1" height="6.2"/>
<rect x="-21.4" y="533" class="st2" width="46.1" height="6.2"/>
<rect x="-53.4" y="533" class="st2" width="23.1" height="6.2"/>
</svg>
