<?xml version="1.0" encoding="utf-8"?>
<!-- Generator: Adobe Illustrator 19.1.0, SVG Export Plug-In . SVG Version: 6.00 Build 0)  -->
<svg version="1.1" id="Layer_1" xmlns="http://www.w3.org/2000/svg" xmlns:xlink="http://www.w3.org/1999/xlink" x="0px" y="0px"
	 viewBox="0 0 963.8 566.9" style="enable-background:new 0 0 963.8 566.9;" xml:space="preserve">
<style type="text/css">
	.st0{fill:none;stroke:#FFCC03;stroke-width:1.5;stroke-linecap:round;stroke-linejoin:round;stroke-miterlimit:10;}
</style>
<line class="st0" x1="267.9" y1="251" x2="305.1" y2="251"/>
<line class="st0" x1="286.8" y1="251" x2="286.8" y2="235.6"/>
<line class="st0" x1="286.5" y1="212.1" x2="286.5" y2="202.4"/>
<line class="st0" x1="291.1" y1="212.1" x2="291.1" y2="204.5"/>
<line class="st0" x1="282" y1="212.1" x2="282" y2="204.5"/>
<path class="st0" d="M291.5,225.7l-0.6-0.4c-1-0.6-2.3-0.4-3,0.6l-3.6,5.5c-0.6,1-0.4,2.3,0.6,3l0.6,0.4c1,0.6,2.3,0.4,3-0.6
	l3.6-5.5C292.8,227.7,292.5,226.3,291.5,225.7z"/>
<path class="st0" d="M284,233.2l-2.8-4.2c-0.6-1-0.4-2.3,0.6-3l0.6-0.4c1-0.6,2.3-0.4,3,0.6l1.2,1.8"/>
<path class="st0" d="M290.7,218l-0.1-0.1c-1-0.6-2.3-0.4-3,0.6l-2.9,4.4c-0.6,1-0.4,2.3,0.6,3l0.1,0.1c1,0.6,2.3,0.4,3-0.6l2.9-4.4
	C291.9,220,291.7,218.6,290.7,218z"/>
<path class="st0" d="M284.2,224.8l-2.4-3.7c-0.6-0.9-0.3-2.1,0.5-2.6l0.5-0.3c0.9-0.6,2.1-0.3,2.6,0.5l1,1.6"/>
<path class="st0" d="M290.2,210.8L290.2,210.8c-0.9-0.6-2.1-0.3-2.7,0.6l-2.5,3.9c-0.6,0.9-0.3,2.1,0.6,2.7v0
	c0.9,0.6,2.1,0.3,2.7-0.6l2.5-3.9C291.3,212.7,291.1,211.4,290.2,210.8z"/>
<path class="st0" d="M284.5,216.9l-2.2-3.3c-0.5-0.8-0.3-1.8,0.5-2.3l0.5-0.3c0.8-0.5,1.8-0.3,2.3,0.5l0.9,1.4"/>
<g>
	<line class="st0" x1="304" y1="222.6" x2="307.8" y2="213.6"/>
	<line class="st0" x1="308.2" y1="224.4" x2="311.2" y2="217.4"/>
	<line class="st0" x1="299.9" y1="220.8" x2="302.9" y2="213.8"/>
	<path class="st0" d="M303.3,237.1l-0.4-0.6c-0.7-1-2-1.3-3-0.6l-5.5,3.6c-1,0.7-1.3,2-0.6,3l0.4,0.6c0.7,1,2,1.3,3,0.6l5.5-3.6
		C303.6,239.4,303.9,238,303.3,237.1z"/>
	<path class="st0" d="M293.4,241l-0.9-5c-0.2-1.2,0.6-2.3,1.7-2.5l0.7-0.1c1.2-0.2,2.3,0.6,2.5,1.7l0.4,2.1"/>
	<path class="st0" d="M305.5,229.6l-0.1-0.1c-0.7-1-2-1.3-3-0.6l-4.4,2.9c-1,0.7-1.3,2-0.6,3l0.1,0.1c0.7,1,2,1.3,3,0.6l4.4-2.9
		C305.9,232,306.1,230.6,305.5,229.6z"/>
	<path class="st0" d="M296.9,233.3l-0.8-4.4c-0.2-1,0.5-2,1.5-2.2l0.6-0.1c1-0.2,2,0.5,2.2,1.5l0.3,1.8"/>
	<path class="st0" d="M307.9,222.9L307.9,222.9c-0.6-0.9-1.8-1.2-2.7-0.6l-3.8,2.5c-0.9,0.6-1.2,1.8-0.6,2.7l0,0
		c0.6,0.9,1.8,1.2,2.7,0.6l3.8-2.5C308.2,225,308.5,223.8,307.9,222.9z"/>
	<path class="st0" d="M300.2,226.2l-0.7-3.9c-0.2-0.9,0.5-1.8,1.4-2l0.6-0.1c0.9-0.2,1.8,0.5,2,1.4l0.3,1.6"/>
</g>
<line class="st0" x1="294.8" y1="243.7" x2="291.1" y2="251"/>
<g>
	<line class="st0" x1="269.2" y1="222.6" x2="265.3" y2="213.6"/>
	<line class="st0" x1="265" y1="224.4" x2="262" y2="217.4"/>
	<line class="st0" x1="273.3" y1="220.8" x2="270.3" y2="213.8"/>
	<path class="st0" d="M269.9,237.1l0.4-0.6c0.7-1,2-1.3,3-0.6l5.5,3.6c1,0.7,1.3,2,0.6,3l-0.4,0.6c-0.7,1-2,1.3-3,0.6l-5.5-3.6
		C269.5,239.4,269.2,238,269.9,237.1z"/>
	<path class="st0" d="M279.7,241l0.9-5c0.2-1.2-0.6-2.3-1.7-2.5l-0.7-0.1c-1.2-0.2-2.3,0.6-2.5,1.7l-0.4,2.1"/>
	<path class="st0" d="M267.6,229.6l0.1-0.1c0.7-1,2-1.3,3-0.6l4.4,2.9c1,0.7,1.3,2,0.6,3l-0.1,0.1c-0.7,1-2,1.3-3,0.6l-4.4-2.9
		C267.3,232,267,230.6,267.6,229.6z"/>
	<path class="st0" d="M276.2,233.3l0.8-4.4c0.2-1-0.5-2-1.5-2.2l-0.6-0.1c-1-0.2-2,0.5-2.2,1.5l-0.3,1.8"/>
	<path class="st0" d="M265.3,222.9L265.3,222.9c0.6-0.9,1.8-1.2,2.7-0.6l3.8,2.5c0.9,0.6,1.2,1.8,0.6,2.7l0,0
		c-0.6,0.9-1.8,1.2-2.7,0.6l-3.8-2.5C264.9,225,264.7,223.8,265.3,222.9z"/>
	<path class="st0" d="M272.9,226.2l0.7-3.9c0.2-0.9-0.5-1.8-1.4-2l-0.6-0.1c-0.9-0.2-1.8,0.5-2,1.4l-0.3,1.6"/>
</g>
<line class="st0" x1="278.3" y1="243.7" x2="282.1" y2="251"/>
</svg>
