<?xml version="1.0" encoding="utf-8"?>
<!-- Generator: Adobe Illustrator 19.1.0, SVG Export Plug-In . SVG Version: 6.00 Build 0)  -->
<svg version="1.1" id="Layer_1" xmlns="http://www.w3.org/2000/svg" xmlns:xlink="http://www.w3.org/1999/xlink" x="0px" y="0px"
	 viewBox="0 0 612 792" style="enable-background:new 0 0 612 792;" xml:space="preserve">
<style type="text/css">
	.st0{fill:none;stroke:#FFCD0A;stroke-width:1.5;stroke-linecap:round;stroke-linejoin:round;stroke-miterlimit:10;}
	.st1{fill:none;stroke:#FFCD0A;stroke-linecap:round;stroke-linejoin:round;stroke-miterlimit:10;}
</style>
<circle class="st0" cx="290.2" cy="410.6" r="12.1"/>
<circle class="st0" cx="290.2" cy="410.6" r="6.4"/>
<path class="st1" d="M293.1,411.2c-0.2,1.3-1.4,2.4-2.8,2.4c-1.6,0-2.9-1.3-2.9-2.9c0-1.4,1-2.6,2.3-2.8"/>
<circle class="st0" cx="323" cy="410.6" r="12.1"/>
<circle class="st0" cx="323" cy="410.6" r="6.4"/>
<path class="st1" d="M325.8,411.2c-0.2,1.3-1.4,2.4-2.8,2.4c-1.6,0-2.9-1.3-2.9-2.9c0-1.4,1-2.6,2.3-2.8"/>
<line class="st1" x1="297.8" y1="401.2" x2="315.4" y2="401.2"/>
<line class="st1" x1="302.3" y1="411.4" x2="310.8" y2="411.4"/>
<line class="st1" x1="304.5" y1="404.8" x2="308.7" y2="404.8"/>
<line class="st1" x1="304.7" y1="407.6" x2="308.7" y2="407.6"/>
<path class="st1" d="M280,404.3v-6.5c0,0,0.3-3.8,3.9-3.8c3.6,0,9.7,0,9.7,0"/>
<path class="st1" d="M332.3,403v-7c0,0-0.3-4.1-3.9-4.1c-3.6,0-11.8,0-11.8,0"/>
<path class="st1" d="M293.6,399.1v-20.2c0,0-0.3-3.7,3.1-3.8s17,0,17,0"/>
<line class="st1" x1="311.7" y1="375.1" x2="318.6" y2="399.4"/>
<path class="st1" d="M320.1,370.9c0,0-1.8,2.3-2.4,3.1c-0.8,1-0.4,1.9-0.2,2.7c0.6,2.2,4.4,15.1,4.4,15.1"/>
<path class="st1" d="M298.4,375.1v15c0.1,2.2,0.5,6.1,6.1,6.6h13.2"/>
<line class="st1" x1="303.6" y1="378.8" x2="303.6" y2="396.4"/>
</svg>
