<?xml version="1.0" encoding="utf-8"?>
<!-- Generator: Adobe Illustrator 22.0.1, SVG Export Plug-In . SVG Version: 6.00 Build 0)  -->
<svg version="1.1" id="Layer_1" xmlns="http://www.w3.org/2000/svg" xmlns:xlink="http://www.w3.org/1999/xlink" x="0px" y="0px"
	 viewBox="0 0 200 260" style="enable-background:new 0 0 200 260;" xml:space="preserve">
<style type="text/css">
	.st0{fill:#FBB040;}
	.st1{fill:#FFFFFF;}
	.st2{font-family:'EssonnesHeadline-Regular';}
	.st3{font-size:9.122px;}
	.st4{clip-path:url(#SVGID_2_);fill:url(#SVGID_3_);}
	.st5{fill:#663535;stroke:#287BC0;stroke-linecap:round;stroke-linejoin:round;stroke-miterlimit:10;}
	.st6{clip-path:url(#SVGID_5_);fill:url(#SVGID_6_);}
	.st7{clip-path:url(#SVGID_8_);fill:url(#SVGID_9_);}
	.st8{clip-path:url(#SVGID_11_);fill:url(#SVGID_12_);}
	.st9{clip-path:url(#SVGID_14_);fill:url(#SVGID_15_);}
	.st10{clip-path:url(#SVGID_17_);fill:url(#SVGID_18_);}
	.st11{clip-path:url(#SVGID_20_);fill:url(#SVGID_21_);}
	.st12{clip-path:url(#SVGID_23_);fill:url(#SVGID_24_);}
	.st13{clip-path:url(#SVGID_26_);fill:url(#SVGID_27_);}
	.st14{clip-path:url(#SVGID_29_);fill:url(#SVGID_30_);}
	.st15{clip-path:url(#SVGID_32_);fill:url(#SVGID_33_);}
	.st16{clip-path:url(#SVGID_35_);fill:url(#SVGID_36_);}
	.st17{clip-path:url(#SVGID_38_);fill:url(#SVGID_39_);}
	.st18{clip-path:url(#SVGID_41_);fill:url(#SVGID_42_);}
	.st19{clip-path:url(#SVGID_44_);fill:url(#SVGID_45_);}
	.st20{clip-path:url(#SVGID_47_);fill:url(#SVGID_48_);}
	.st21{clip-path:url(#SVGID_50_);fill:url(#SVGID_51_);}
	.st22{clip-path:url(#SVGID_53_);fill:url(#SVGID_54_);stroke:#FFFFFF;stroke-miterlimit:10;}
	.st23{clip-path:url(#SVGID_56_);fill:url(#SVGID_57_);stroke:#FFFFFF;stroke-miterlimit:10;}
	.st24{clip-path:url(#SVGID_59_);fill:url(#SVGID_60_);}
	.st25{clip-path:url(#SVGID_62_);fill:url(#SVGID_63_);}
	.st26{clip-path:url(#SVGID_65_);fill:url(#SVGID_66_);}
	.st27{clip-path:url(#SVGID_68_);fill:url(#SVGID_69_);}
	.st28{clip-path:url(#SVGID_71_);fill:url(#SVGID_72_);}
	.st29{clip-path:url(#SVGID_74_);fill:url(#SVGID_75_);}
	.st30{clip-path:url(#SVGID_77_);fill:url(#SVGID_78_);}
	.st31{clip-path:url(#SVGID_80_);fill:url(#SVGID_81_);}
	.st32{clip-path:url(#SVGID_83_);fill:url(#SVGID_84_);}
	.st33{clip-path:url(#SVGID_86_);fill:url(#SVGID_87_);}
	.st34{clip-path:url(#SVGID_89_);fill:url(#SVGID_90_);}
</style>
<rect x="-0.3" y="0" class="st0" width="200.8" height="259.4"/>
<g>
	<path class="st1" d="M43.8,195.5c-0.9-1.1-2.5-2.4-4.2-2.8c-0.6-0.1-1.1-0.2-2.6-0.2c-1.1,0-2.7,0.5-3.4,0.7
		c-1.3,0.5-2.5,1-3.6,1.5c-0.1,0-0.5-0.3-1.3-0.7c-1.9-1.1-3.8-1.7-5.7-1.7c-1.5,0-2.9,0.3-4.3,1c-3.2,1.5-4.8,3.9-4.8,7
		c0,2.5,1.4,4.8,4.3,6.9c2.1,1.6,4.5,2.8,7,3.7l-4.1-3.9c-1.9-1.8-2.8-3.6-2.8-5.6c0-0.9,0.3-1.9,0.9-2.8c1.4-2.2,3.3-3.2,5.8-3.2
		c1.9,0,2.9,0.3,2.9,1c0,0.1-0.2,0.4-0.5,0.9c-0.9,1.5-1.4,2.8-1.4,4l4.4,1.8c1.1-5.2,3.9-7.8,8.6-8c0.8,0,1.5,0.1,2.3,0.4
		c1.6,0.6,2.4,1.5,2.4,3c0,1.4-0.6,2.8-1.8,4.1c-1.1,1.2-2.4,2.2-4,3c-1.7,0.9-3.2,1.4-4.8,1.4c2.5,2.5,3.9,3.7,4.2,3.7
		c0.3,0,1-0.4,2.2-1.2c0.9-0.6,1.6-1.2,2.1-1.6c2.4-2.1,3.6-4.6,3.6-7.5C45.2,198.3,44.7,196.7,43.8,195.5"/>
	<path class="st1" d="M64.1,201.7c0,1.4-0.5,2.8-1.5,4.4c-1.3,2-3.2,3-5.6,3c-1.8,0-3.1-1-3.9-3c-0.4-1-0.6-1.9-0.6-2.8V190h-4.1v12
		c0,1.5,0.4,2.9,1.2,4.1c1.8,2.8,4.3,4.1,7.5,4.1c1,0,1.9-0.1,2.6-0.3c1.2-0.3,2.7-1.1,4.4-2.3v1.7l2.5,1.1c0.9,0.4,1.6,0.7,1.9,0.9
		v-18.1h-4.4V201.7z"/>
	<path class="st1" d="M73.3,190v19c0.1,0,0.7,0.3,2,1l1.1,0.6c0.2,0.1,0.4,0.2,0.6,0.2V190H73.3z"/>
	<path class="st1" d="M98.3,195.1c-0.9-1.8-3-2.7-6.2-2.7c-0.8,0-1.6,0.1-2.4,0.2c-1.8,0.3-3.3,1-5.4,2.2c-0.6,0.4-1.5,1.1-1.7,1.2
		v1.6c0.8-0.3,1.7-0.6,2.5-1c1.9-0.8,4.1-1.2,6.4-1.3c1,0,1.9,0.1,2.5,0.4c0.6,0.3,1.2,0.8,1.8,1.6v2c-1.3-0.9-2.9-1.4-5-1.4
		c-3.4,0-6.2,1.1-8.5,3.4c-1.2,1.2-1.8,2.3-1.8,3.5c0,1,0.4,2,1.1,2.8c1.5,1.8,3.7,2.6,6.6,2.6c2.1,0,3.9-0.4,5.4-1.1
		c0.5-0.2,1.1-0.6,1.9-1c0.2,0.1,0.3,0.4,0.3,0.9c2,0.8,3.1,1.3,3.4,1.4v-8.2C99.2,198.7,98.9,196.3,98.3,195.1 M92.9,205.8
		c-2.2,1.3-4.7,2-7.3,2c-2.1,0-3.3-0.5-3.6-1.6c0-0.6,0.4-1.3,1.1-2.1c1.8-2.2,4.3-3.2,7.3-3.2c0.8,0,1.9,0.2,3.1,0.6
		c1.5,0.5,2.3,1.1,2.3,1.7C95.8,203.8,94.8,204.7,92.9,205.8"/>
	<path class="st1" d="M167.2,195.1c-0.9-1.8-3-2.7-6.2-2.7c-0.8,0-1.6,0.1-2.4,0.2c-1.8,0.3-3.3,1-5.4,2.2c-0.6,0.4-1.5,1.1-1.7,1.2
		v1.6c0.8-0.3,1.7-0.6,2.5-1c1.9-0.8,4.1-1.2,6.4-1.3c1,0,1.9,0.1,2.5,0.4c0.6,0.3,1.2,0.8,1.8,1.6v2c-1.3-0.9-2.9-1.4-5-1.4
		c-3.4,0-6.2,1.1-8.5,3.4c-1.2,1.2-1.8,2.3-1.8,3.5c0,1,0.4,2,1.1,2.8c1.5,1.8,3.7,2.6,6.6,2.6c2.1,0,3.9-0.4,5.4-1.1
		c0.5-0.2,1.1-0.6,1.9-1c0.2,0.1,0.3,0.4,0.3,0.9c2,0.8,3.1,1.3,3.4,1.4v-8.2C168.2,198.7,167.9,196.3,167.2,195.1 M161.9,205.8
		c-2.2,1.3-4.7,2-7.3,2c-2.1,0-3.3-0.5-3.6-1.6c0-0.6,0.4-1.3,1.1-2.1c1.8-2.2,4.3-3.2,7.3-3.2c0.8,0,1.9,0.2,3.1,0.6
		c1.5,0.5,2.3,1.1,2.3,1.7C164.7,203.8,163.8,204.7,161.9,205.8"/>
	<path class="st1" d="M118.7,190v8.1c-1.9-2.1-3.2-3.3-3.6-3.7c-1.6-1.3-3.1-1.9-4.6-1.9c-2.4,0-4.5,1-6.2,3.1
		c-1.5,1.8-2.3,3.4-2.3,4.8c0,1.5,0.5,3,1.7,4.6c0.9,1.3,2.1,2.5,3.6,3.5c1.7,1.2,3.2,1.8,4.7,1.8c2.2,0,4.5-1.5,6.9-4.4v3l3.9,1.7
		V190C122.6,190,118.7,190,118.7,190 M116,203c-0.9,1.2-1.8,2.2-2.8,3c-1.5,1.2-2.8,1.7-4.1,1.7c-1.3,0-2.3-0.5-3-1.6
		c-0.7-0.9-1.1-2.1-1.1-3.4c0-2.3,1.4-4.4,4.2-6.1c1.3-0.8,2.4-1.2,3.2-1.2c1.2,0,2.3,0.4,3.4,1.1c1.2,0.8,1.8,1.7,1.8,2.8
		C117.6,200.4,117.1,201.6,116,203"/>
	<path class="st1" d="M138.3,192.5c-0.9,0-1.8,0.1-2.5,0.4c-1.3,0.5-2.8,1.6-4.4,3.2V190h-4.2v18.3l4,2.1V202c0-1.1,0.5-2.3,1.4-3.4
		c0.8-1.1,1.9-2.1,3.2-2.8c1.4-0.9,2.7-1.4,4-1.4c1.3,0,2.4,0.5,3.1,1.6c0.6,0.9,1,2.1,1,3.4c0,2.3-0.7,4.2-1.9,5.7
		c-1.1,1.3-2.2,2.5-3,3.4l3.5,2.1c0.4-0.3,0.9-0.8,1.6-1.5c2.2-2.1,3.3-4.5,3.3-7.1c0-1.4-0.4-2.9-1.1-4.4
		C144.4,194.2,141.8,192.5,138.3,192.5"/>
	<path class="st1" d="M183,192.4c-1,0-2,0.2-2.9,0.5c-1.9,0.7-3.2,1.3-3.9,1.9v-1.6h-4.1v15.7l4.1,2.1v-9c0-2.6,1.3-4.9,3.9-7.1
		c1.3-1,2.5-1.6,3.6-1.6c0.5,0,1.1,0.2,1.6,0.5c0.6,0.3,1,0.8,1,1.2c0,0.9-0.5,1.7-1.5,2.4c-0.9,0.6-1.8,1-2.8,1.1l3.2,3.6
		c0.9-0.4,1.9-1.1,2.7-2c1-1,1.5-2,1.5-2.8c0-1-0.4-1.8-1.1-2.6C186.9,193.2,185.1,192.4,183,192.4"/>
</g>
<text transform="matrix(1 0 0 1 14.0298 223.8721)" class="st1 st2 st3">Attached to nothing, connected to everything</text>
<g>
	<g>
		<defs>
			<path id="SVGID_1_" d="M66.7,77.7c-1.4-0.4-3.4-0.4-3.7-0.4c-0.2,0-0.4,0-0.5,0c-2.6,0.2-7.4,1-10.5,4.2
				c-1.8,1.9-2.8,3.4-3.7,4.8c-0.1,0.1-0.1,0.2-0.3,0.4c-3.3,5.7-7,9.6-11.3,11.8c4,2.2,7.9,6.2,11.4,11.7l0.2,0.3
				c0.9,1.5,1.9,3,3.7,4.8c3.1,3.1,7.9,4,10.5,4.2c0.1,0,0.2,0,0.4,0c0.2,0,2.2,0,3.7-0.4l0.3,0.5c0.6,0.9,0.9,1.3,0.9,1.3
				c-2.3,1-5,0.9-5.4,0.9c-3-0.2-8.3-1.2-11.9-4.8c-2-2-3.1-3.7-4-5.2c-0.8-1.3-6.9-11.7-15.7-13c-0.8-0.1-3.2-0.4-3.2-0.4
				s1.4,0.1,3.2-0.2c9.7-1.5,14.9-11.9,15.7-13.1c1-1.5,2-3.1,4-5.2c3.6-3.6,8.9-4.6,11.9-4.8c0.4,0,3.2-0.1,5.4,0.9
				c0,0-0.3,0.4-1,1.5L66.7,77.7z"/>
		</defs>
		<clipPath id="SVGID_2_">
			<use xlink:href="#SVGID_1_"  style="overflow:visible;"/>
		</clipPath>
		<linearGradient id="SVGID_3_" gradientUnits="userSpaceOnUse" x1="101.7245" y1="18.4662" x2="101.7245" y2="178.2092">
			<stop  offset="0" style="stop-color:#F68620"/>
			<stop  offset="0.6989" style="stop-color:#D92127"/>
		</linearGradient>
		<rect x="21.9" y="18.5" class="st4" width="159.7" height="159.7"/>
	</g>
	<path class="st5" d="M138,88.9"/>
	<path class="st5" d="M138,107.8"/>
	<path class="st5" d="M130.8,107.8"/>
	<g>
		<defs>
			<path id="SVGID_4_" d="M133.2,77.6c1.4-0.4,3.4-0.4,3.7-0.4c0.2,0,0.4,0,0.5,0c2.6,0.2,7.4,1,10.5,4.2c1.8,1.9,2.8,3.4,3.7,4.8
				c0.1,0.1,0.1,0.2,0.3,0.4c3.3,5.7,7,9.6,11.3,11.8c-4,2.2-7.9,6.2-11.4,11.7l-0.2,0.3c-0.9,1.5-1.9,3-3.7,4.8
				c-3.1,3.1-7.9,4-10.5,4.2c-0.1,0-0.2,0-0.4,0c-0.2,0-2.2,0-3.7-0.4l-0.3,0.5c-0.6,0.9-0.9,1.3-0.9,1.3c2.3,1,5,0.9,5.4,0.9
				c3-0.2,8.3-1.2,11.9-4.8c2-2,3.1-3.7,4-5.2c0.8-1.3,6.9-11.7,15.7-13c0.8-0.1,3.2-0.4,3.2-0.4s-1.4,0.1-3.2-0.2
				c-9.7-1.5-14.9-11.9-15.7-13.1c-1-1.5-2-3.1-4-5.2c-3.6-3.6-8.9-4.6-11.9-4.8c-0.4,0-3.2-0.1-5.4,0.9c0,0,0.3,0.4,1,1.5
				L133.2,77.6z"/>
		</defs>
		<clipPath id="SVGID_5_">
			<use xlink:href="#SVGID_4_"  style="overflow:visible;"/>
		</clipPath>
		<linearGradient id="SVGID_6_" gradientUnits="userSpaceOnUse" x1="101.7245" y1="18.4662" x2="101.7245" y2="178.2092">
			<stop  offset="0" style="stop-color:#F68620"/>
			<stop  offset="0.6989" style="stop-color:#D92127"/>
		</linearGradient>
		<rect x="21.9" y="18.5" class="st6" width="159.7" height="159.7"/>
	</g>
	<g>
		<defs>
			<path id="SVGID_7_" d="M134,78.9c0.9-0.2,2-0.2,2.9-0.2c0.2,0,0.3,0,0.4,0c2.4,0.2,6.8,0.9,9.5,3.7c1.7,1.7,2.6,3.1,3.5,4.6
				c0,0.1,0.1,0.2,0.2,0.3l0.1,0.1c2.9,4.9,6.1,8.6,9.7,11.1c-3.5,2.5-6.8,6.1-9.8,10.9l-0.2,0.3c-0.9,1.4-1.8,2.8-3.5,4.6
				c-2.8,2.8-7.2,3.5-9.5,3.7c0,0-0.1,0-0.2,0c0,0,0,0-0.1,0c-1.1,0-2.1-0.1-2.8-0.2c0,0,5.1-7.9,5.1-18.7
				C139.2,86.6,134,78.9,134,78.9z"/>
		</defs>
		<clipPath id="SVGID_8_">
			<use xlink:href="#SVGID_7_"  style="overflow:visible;"/>
		</clipPath>
		<linearGradient id="SVGID_9_" gradientUnits="userSpaceOnUse" x1="101.7245" y1="18.4662" x2="101.7245" y2="178.2092">
			<stop  offset="0" style="stop-color:#F68620"/>
			<stop  offset="0.6989" style="stop-color:#D92127"/>
		</linearGradient>
		<rect x="21.9" y="18.5" class="st7" width="159.7" height="159.7"/>
	</g>
	<g>
		<defs>
			<path id="SVGID_10_" d="M65.9,78.9c-0.9-0.2-2-0.2-2.9-0.2c-0.2,0-0.3,0-0.4,0c-2.4,0.2-6.8,0.9-9.5,3.7
				c-1.7,1.7-2.6,3.1-3.5,4.6c0,0.1-0.1,0.2-0.2,0.3l-0.1,0.1c-2.9,4.9-6.1,8.6-9.7,11.1c3.5,2.5,6.8,6.1,9.8,10.9l0.2,0.3
				c0.9,1.4,1.8,2.8,3.5,4.6c2.8,2.8,7.2,3.5,9.5,3.7c0,0,0.1,0,0.2,0c0,0,0,0,0.1,0c1.1,0,2.1-0.1,2.8-0.2c0,0-5.1-7.9-5.1-18.7
				C60.7,86.6,65.9,78.9,65.9,78.9z"/>
		</defs>
		<clipPath id="SVGID_11_">
			<use xlink:href="#SVGID_10_"  style="overflow:visible;"/>
		</clipPath>
		<linearGradient id="SVGID_12_" gradientUnits="userSpaceOnUse" x1="101.7245" y1="18.4662" x2="101.7245" y2="178.2092">
			<stop  offset="0" style="stop-color:#F68620"/>
			<stop  offset="0.6989" style="stop-color:#D92127"/>
		</linearGradient>
		<rect x="21.9" y="18.5" class="st8" width="159.7" height="159.7"/>
	</g>
	<g>
		<defs>
			<path id="SVGID_13_" d="M99.9,61.2c-20.6,0-37.2,16.7-37.2,37.2c0,7.2,2,13.9,5.6,19.6c6.6,10.6,18.3,17.6,31.7,17.6
				c20.6,0,37.2-16.7,37.2-37.2S120.5,61.2,99.9,61.2z M99.9,128.6c-16.6,0-30.2-13.5-30.2-30.2c0-16.6,13.5-30.2,30.2-30.2
				c16.6,0,30.2,13.5,30.2,30.2C130.1,115,116.6,128.6,99.9,128.6z"/>
		</defs>
		<clipPath id="SVGID_14_">
			<use xlink:href="#SVGID_13_"  style="overflow:visible;"/>
		</clipPath>
		<linearGradient id="SVGID_15_" gradientUnits="userSpaceOnUse" x1="85.2698" y1="22.5746" x2="85.2698" y2="174.219">
			<stop  offset="0" style="stop-color:#F68620"/>
			<stop  offset="0.6989" style="stop-color:#D92127"/>
		</linearGradient>
		<rect x="9.4" y="22.6" class="st9" width="151.6" height="151.6"/>
	</g>
	<g>
		<defs>
			<path id="SVGID_16_" d="M99.9,71.3c-14.9,0-27.1,12.2-27.1,27.1s12.2,27.1,27.1,27.1S127,113.3,127,98.4S114.9,71.3,99.9,71.3z
				 M99.9,77.6l6.8,6.8l-1.1,1.1l-5.7-5.7l-5.7,5.7l-1.1-1.1L99.9,77.6z M86,105.1l-6.8-6.8l6.8-6.8l1.1,1.1l-5.7,5.7l5.7,5.7
				L86,105.1z M99.9,119.1l-6.8-6.8l1.1-1.1l5.7,5.7l5.7-5.7l1.1,1.1L99.9,119.1z M111.9,110.4H87.9V86.3h24.1V110.4z M113.8,105.2
				l-1.1-1.1l5.8-5.8l-5.8-5.8l1.1-1.1l6.9,6.9L113.8,105.2z"/>
		</defs>
		<clipPath id="SVGID_17_">
			<use xlink:href="#SVGID_16_"  style="overflow:visible;"/>
		</clipPath>
		<linearGradient id="SVGID_18_" gradientUnits="userSpaceOnUse" x1="101.4103" y1="22.2011" x2="101.4103" y2="174.4742">
			<stop  offset="0" style="stop-color:#F68620"/>
			<stop  offset="0.6989" style="stop-color:#D92127"/>
		</linearGradient>
		<rect x="25.3" y="22.2" class="st10" width="152.3" height="152.3"/>
	</g>
	<g>
		<defs>
			<path id="SVGID_19_" d="M89.6,88v20.7h20.7V88H89.6z M99.9,106.1l-7.3-12.6h14.6L99.9,106.1z"/>
		</defs>
		<clipPath id="SVGID_20_">
			<use xlink:href="#SVGID_19_"  style="overflow:visible;"/>
		</clipPath>
		<linearGradient id="SVGID_21_" gradientUnits="userSpaceOnUse" x1="101.4103" y1="22.2602" x2="101.4103" y2="174.5334">
			<stop  offset="0" style="stop-color:#F68620"/>
			<stop  offset="0.6989" style="stop-color:#D92127"/>
		</linearGradient>
		<rect x="25.3" y="22.3" class="st11" width="152.3" height="152.3"/>
	</g>
	<g>
		<defs>
			<polygon id="SVGID_22_" points="94.7,94.9 105.1,94.9 99.9,103.9 			"/>
		</defs>
		<clipPath id="SVGID_23_">
			<use xlink:href="#SVGID_22_"  style="overflow:visible;"/>
		</clipPath>
		<linearGradient id="SVGID_24_" gradientUnits="userSpaceOnUse" x1="101.4103" y1="22.2602" x2="101.4103" y2="174.5334">
			<stop  offset="0" style="stop-color:#F68620"/>
			<stop  offset="0.6989" style="stop-color:#D92127"/>
		</linearGradient>
		<rect x="25.3" y="22.3" class="st12" width="152.3" height="152.3"/>
	</g>
	<g>
		<g>
			<defs>
				<path id="SVGID_25_" d="M63,71.3c0,0-2.2-2.9-3.8-6.2c-0.5-1.1-1.4-2.7-1.9-3.8c-1-2.4-1.6-4.4-1.6-4.4c0,0-0.6,0-0.6,0
					c-1.8,0-10.3,0.4-15.2,10.8c-3.6,7.8-3.9,12.5-5.7,17.2c-2.9,7.7-7.6,8.1-7.6,8.1s3.4,0.1,5.1,0c5.2-0.2,7.5-2.9,11.2-9.4
					c0.2-0.3,0.3-0.5,0.4-0.7c1-1.5,2.2-3.5,4.5-5.8c4.4-4.5,10.8-5.6,14.2-5.9C62.2,71.3,62.5,71.3,63,71.3L63,71.3z"/>
			</defs>
			<clipPath id="SVGID_26_">
				<use xlink:href="#SVGID_25_"  style="overflow:visible;"/>
			</clipPath>
			<linearGradient id="SVGID_27_" gradientUnits="userSpaceOnUse" x1="101.7245" y1="18.4662" x2="101.7245" y2="178.2092">
				<stop  offset="0" style="stop-color:#F68620"/>
				<stop  offset="0.6989" style="stop-color:#D92127"/>
			</linearGradient>
			<rect x="21.9" y="18.5" class="st13" width="159.7" height="159.7"/>
		</g>
		<g>
			<g>
				<defs>
					<path id="SVGID_28_" d="M136.9,71.3c0,0,2.2-2.9,3.8-6.2c0.5-1.1,1.4-2.7,1.9-3.8c1-2.4,1.6-4.4,1.6-4.4c0,0,0.6,0,0.6,0
						c1.8,0,10.3,0.4,15.2,10.8c3.6,7.8,3.9,12.5,5.7,17.2c2.9,7.7,7.6,8.1,7.6,8.1s-3.4,0.1-5.1,0c-5.2-0.2-7.5-2.9-11.2-9.4
						c-0.2-0.3-0.3-0.5-0.4-0.7c-1-1.5-2.2-3.5-4.5-5.8c-4.4-4.5-10.8-5.6-14.2-5.9C137.7,71.3,137.4,71.3,136.9,71.3L136.9,71.3z"
						/>
				</defs>
				<clipPath id="SVGID_29_">
					<use xlink:href="#SVGID_28_"  style="overflow:visible;"/>
				</clipPath>
				<linearGradient id="SVGID_30_" gradientUnits="userSpaceOnUse" x1="101.7245" y1="18.4662" x2="101.7245" y2="178.2092">
					<stop  offset="0" style="stop-color:#F68620"/>
					<stop  offset="0.6989" style="stop-color:#D92127"/>
				</linearGradient>
				<rect x="21.9" y="18.5" class="st14" width="159.7" height="159.7"/>
			</g>
			<g>
				<defs>
					<path id="SVGID_31_" d="M75.8,52c1.4-6.7,5.5-12.6,11.4-16.2c0.9-0.5,2.1-1.2,2.9-1.6c3-1.6,9.7-4.2,9.8-12.2l0,0l0,0
						c0.2,8.1,7.4,11,9.5,12c1.2,0.6,2.5,1.3,2.9,1.5c6.1,3.5,10.3,9.5,11.7,16.4c0,0,0,0,0,0c2.8-1.3,6.4-2.7,10.8-3.8l0-0.2
						c0-0.1,0-0.2,0-0.3c0-1.9-1-8.9-11.9-13.5c-8.5-3.6-14.3-4.1-18.4-6.1c-4.1-2.1-4.7-6.3-4.7-6.3h0c0,1.1-0.6,4.2-4.7,6.3
						c-4.1,2-9.8,2.5-18.4,6.1C66.1,38.7,65,45.5,64.9,47.6l0,0.6C64.9,48.2,70.3,49.4,75.8,52L75.8,52z"/>
				</defs>
				<clipPath id="SVGID_32_">
					<use xlink:href="#SVGID_31_"  style="overflow:visible;"/>
				</clipPath>
				<linearGradient id="SVGID_33_" gradientUnits="userSpaceOnUse" x1="99.8899" y1="18.7518" x2="99.8899" y2="178.4948">
					<stop  offset="0" style="stop-color:#F68620"/>
					<stop  offset="0.6989" style="stop-color:#D92127"/>
				</linearGradient>
				<rect x="20" y="18.8" class="st15" width="159.7" height="159.7"/>
			</g>
			<g>
				<defs>
					<path id="SVGID_34_" d="M73.5,53.8c0,0-0.8-0.3-0.9-0.3c-0.9-0.4-6.8-2.9-15.9-4c0,0-0.2,0-0.2,0l0,0.2c0,0,0,0.1,0,0.1
						c1.4,8.8,4.9,14.3,4.9,14.3s-0.2,1.4,0.1,3.2c0.3,1.5,1.4,4,1.4,4c0,0-0.6-0.8-0.9-1.3c-0.7-1.2-3.5-4.3-6.6-13.7
						c-0.9-2.9-2-6.4-2.9-10.5c0-0.1-0.1-0.4-0.1-0.4s0.4,0.1,0.5,0.1c20.5,3.8,24,7.2,27.1,9c1,0.6,1.7,1.5,1.7,1.5
						S79,54.3,76.2,54C75,53.8,73.5,53.8,73.5,53.8z"/>
				</defs>
				<clipPath id="SVGID_35_">
					<use xlink:href="#SVGID_34_"  style="overflow:visible;"/>
				</clipPath>
				<linearGradient id="SVGID_36_" gradientUnits="userSpaceOnUse" x1="99.994" y1="18.7518" x2="99.994" y2="178.4948">
					<stop  offset="0" style="stop-color:#F68620"/>
					<stop  offset="0.6989" style="stop-color:#D92127"/>
				</linearGradient>
				<rect x="20.1" y="18.8" class="st16" width="159.7" height="159.7"/>
			</g>
			<g>
				<defs>
					<path id="SVGID_37_" d="M69.9,54.3c-1.8,0.4-3,0.8-4.5,0.8c-1.9-0.1-3.1-0.5-3.9-1.2c-0.2-0.1-0.3-0.3-0.4-0.4l0.6,0.6
						c0.1,0.1,0.1,0.1,0.2,0.2c0.7,0.8,1.1,1.5,1.1,2.9c0,1.3-0.5,2.5-0.9,4.2l-0.1,0.2l-0.2-0.4c-1-2.2-2.4-5.6-3.3-10.1
						c4.9,0.7,8.7,1.9,11.1,2.7c0,0,0.5,0.2,0.9,0.3L69.9,54.3z"/>
				</defs>
				<clipPath id="SVGID_38_">
					<use xlink:href="#SVGID_37_"  style="overflow:visible;"/>
				</clipPath>
				<linearGradient id="SVGID_39_" gradientUnits="userSpaceOnUse" x1="99.994" y1="18.7518" x2="99.994" y2="178.4948">
					<stop  offset="0" style="stop-color:#F68620"/>
					<stop  offset="0.6989" style="stop-color:#D92127"/>
				</linearGradient>
				<rect x="20.1" y="18.8" class="st17" width="159.7" height="159.7"/>
			</g>
			<g>
				<defs>
					<path id="SVGID_40_" d="M126.4,53.8c0,0,0.8-0.3,0.9-0.3c0.9-0.4,6.8-2.9,15.9-4c0,0,0.2,0,0.2,0l0,0.2c0,0,0,0.1,0,0.1
						c-1.4,8.8-4.9,14.3-4.9,14.3s0.2,1.4-0.1,3.2c-0.3,1.5-1.4,4-1.4,4c0,0,0.7-0.8,1-1.4c0.7-1.2,4.3-6.2,6.5-13.7
						c0.8-2.9,1.9-6.3,2.9-10.3c0-0.1,0.1-0.4,0.1-0.4s-0.4,0.1-0.5,0.1c-20.5,3.8-23.3,6.7-26.6,8.6c-0.6,0.3-1.7,1.4-1.7,1.4
						s2.2-1.3,5.1-1.7C124.9,53.8,126.4,53.8,126.4,53.8z"/>
				</defs>
				<clipPath id="SVGID_41_">
					<use xlink:href="#SVGID_40_"  style="overflow:visible;"/>
				</clipPath>
				<linearGradient id="SVGID_42_" gradientUnits="userSpaceOnUse" x1="99.8899" y1="18.7518" x2="99.8899" y2="178.4948">
					<stop  offset="0" style="stop-color:#F68620"/>
					<stop  offset="0.6989" style="stop-color:#D92127"/>
				</linearGradient>
				<rect x="20" y="18.8" class="st18" width="159.7" height="159.7"/>
			</g>
			<g>
				<defs>
					<path id="SVGID_43_" d="M130,54.3c1.8,0.4,3,0.8,4.5,0.8c1.9-0.1,3.1-0.5,3.9-1.2c0.2-0.1,0.3-0.3,0.4-0.4l-0.6,0.6
						c-0.1,0.1-0.1,0.1-0.2,0.2c-0.7,0.8-1.1,1.5-1.1,2.9c0,1.3,0.5,2.5,0.9,4.2l0.1,0.2l0.2-0.4c1-2.2,2.4-5.6,3.3-10.1
						c-4.9,0.7-8.7,1.9-11.1,2.7c0,0-0.5,0.2-0.9,0.3L130,54.3z"/>
				</defs>
				<clipPath id="SVGID_44_">
					<use xlink:href="#SVGID_43_"  style="overflow:visible;"/>
				</clipPath>
				<linearGradient id="SVGID_45_" gradientUnits="userSpaceOnUse" x1="99.994" y1="18.7518" x2="99.994" y2="178.4948">
					<stop  offset="0" style="stop-color:#F68620"/>
					<stop  offset="0.6989" style="stop-color:#D92127"/>
				</linearGradient>
				<rect x="20.1" y="18.8" class="st19" width="159.7" height="159.7"/>
			</g>
			<g>
				<defs>
					<path id="SVGID_46_" d="M114.5,59.9c0.1-1.3,0.1-2.6,0-3.4c-0.1-2.4-1.1-8.3-7.1-11.8c-0.4-0.2-0.9-0.5-1.4-0.7
						c-1.9-1-4.9-2.7-5.9-7.7c0-0.2-0.3-0.1-0.4,0c-1.1,5-3.4,6.3-5.5,7.4c-0.6,0.3-1.2,0.6-1.8,1c-5.6,3.4-6.8,8.8-7.1,11.8
						c0,0.3-0.1,1.8,0,3.4c0,0-0.9-1.4-1.8-2.3c-1.4-1.3-2.8-2.5-5-4.1c0-0.1,0.4-1.7,0.4-1.8c1.4-5.6,5-10.4,9.8-13.4
						c0.7-0.5,1.9-1,2.6-1.4l0.1-0.1c0.2-0.1,0.5-0.2,0.7-0.4c2.1-1,6.1-3.1,7.7-7c1.5,3.9,6,6.2,7.6,7c0.2,0.1,0.4,0.2,0.5,0.2
						c1.7,0.9,2.6,1.3,2.8,1.5c5.1,2.9,8.8,8,10.2,13.8l0.3,1.5c-1.9,1.4-4,3-5.3,4.4C115.3,58.7,114.5,59.9,114.5,59.9z"/>
				</defs>
				<clipPath id="SVGID_47_">
					<use xlink:href="#SVGID_46_"  style="overflow:visible;"/>
				</clipPath>
				<linearGradient id="SVGID_48_" gradientUnits="userSpaceOnUse" x1="99.8899" y1="18.7518" x2="99.8899" y2="178.4948">
					<stop  offset="0" style="stop-color:#F68620"/>
					<stop  offset="0.6989" style="stop-color:#D92127"/>
				</linearGradient>
				<rect x="20" y="18.8" class="st20" width="159.7" height="159.7"/>
			</g>
			<g>
				<defs>
					<path id="SVGID_49_" d="M87.1,61.3c-0.4-1.9-0.3-4.1-0.3-4.7c0.2-2.1,1-7.4,6.4-10.6c2.8-1.7,6-2.6,6.6-6.2
						c0.1-0.4,0.2-0.4,0.2,0c0.7,3.7,4.2,4.8,6.6,6.2c5.4,3.1,6.3,8.5,6.4,10.6c0,0.6,0.1,2.8-0.2,4.7c0,0-4.9-2-12.7-2.2
						C93,59,87.1,61.3,87.1,61.3z"/>
				</defs>
				<clipPath id="SVGID_50_">
					<use xlink:href="#SVGID_49_"  style="overflow:visible;"/>
				</clipPath>
				<linearGradient id="SVGID_51_" gradientUnits="userSpaceOnUse" x1="99.8899" y1="18.7518" x2="99.8899" y2="178.4948">
					<stop  offset="0" style="stop-color:#F68620"/>
					<stop  offset="0.6989" style="stop-color:#D92127"/>
				</linearGradient>
				<rect x="20" y="18.8" class="st21" width="159.7" height="159.7"/>
			</g>
			<g>
				<defs>
					<path id="SVGID_52_" d="M68.5,75.1c-0.5-0.3-2-1.3-2.2-1.4c-0.5-0.5-1.5-1.6-2.4-3.1c-1.1-1.9-1.6-3.8-1.5-5.6
						c0.1-2,0.5-3.3,0.9-4.5c0.3-1.1,0.6-2,0.6-3.2c0-0.5-0.1-0.9-0.2-1.3c0.5,0.1,1,0.1,1.6,0.2l0.3,0c1.1,0,2-0.2,3.1-0.5
						c1.3-0.3,2.8-0.7,5-0.8c0.2,0,0.4,0,0.5,0c2,0,3.9,0.5,5.6,1.4c2.5,1.3,4.6,3.7,5.4,5.7c-1.1,0.4-2.9,1.2-5.1,2.5
						c-1.2,0.7-2.6,1.6-4.1,2.8C72.6,69.8,69.7,73.4,68.5,75.1z"/>
				</defs>
				<clipPath id="SVGID_53_">
					<use xlink:href="#SVGID_52_"  style="overflow:visible;"/>
				</clipPath>
				<linearGradient id="SVGID_54_" gradientUnits="userSpaceOnUse" x1="96.0869" y1="21.8317" x2="96.0869" y2="179.4912">
					<stop  offset="0" style="stop-color:#F68620"/>
					<stop  offset="0.6989" style="stop-color:#D92127"/>
				</linearGradient>
				<polygon class="st22" points="17.3,179.5 17.3,21.8 174.9,21.8 174.9,179.5 				"/>
			</g>
			<g>
				<defs>
					<path id="SVGID_55_" d="M131.3,75.1c0.5-0.3,2-1.3,2.2-1.4c0.5-0.5,1.5-1.6,2.4-3.1c1.1-1.9,1.6-3.8,1.5-5.6
						c-0.1-2-0.5-3.3-0.9-4.5c-0.3-1.1-0.6-2-0.6-3.2c0-0.5,0.1-0.9,0.2-1.3c-0.5,0.1-1,0.1-1.6,0.2l-0.3,0c-1.1,0-2-0.2-3.1-0.5
						c-1.3-0.3-2.8-0.7-5-0.8c-0.2,0-0.4,0-0.5,0c-2,0-3.9,0.5-5.6,1.4c-2.5,1.3-4.6,3.7-5.4,5.7c1.1,0.4,2.9,1.2,5.1,2.5
						c1.2,0.7,2.6,1.6,4.1,2.8C127.2,69.8,130.1,73.4,131.3,75.1z"/>
				</defs>
				<clipPath id="SVGID_56_">
					<use xlink:href="#SVGID_55_"  style="overflow:visible;"/>
				</clipPath>
				
					<linearGradient id="SVGID_57_" gradientUnits="userSpaceOnUse" x1="94.0164" y1="21.8317" x2="94.0164" y2="179.4912" gradientTransform="matrix(-1 0 0 1 197.746 0)">
					<stop  offset="0" style="stop-color:#F68620"/>
					<stop  offset="0.6989" style="stop-color:#D92127"/>
				</linearGradient>
				<polygon class="st23" points="182.6,179.5 182.6,21.8 24.9,21.8 24.9,179.5 				"/>
			</g>
		</g>
	</g>
	<g>
		<defs>
			<path id="SVGID_58_" d="M136.7,125.3c0,0,2.2,2.9,3.8,6.2c0.5,1.1,1.4,2.7,1.9,3.8c1,2.4,1.6,4.4,1.6,4.4c0,0,0.6,0,0.6,0
				c1.8,0,10.3-0.4,15.2-10.8c3.6-7.8,3.9-12.5,5.7-17.2c2.9-7.7,7.6-8.1,7.6-8.1s-3.4-0.1-5.1,0c-5.2,0.2-7.5,2.9-11.2,9.4
				c-0.2,0.3-0.3,0.5-0.4,0.7c-1,1.5-2.2,3.5-4.5,5.8c-4.4,4.5-10.8,5.6-14.2,5.9C137.6,125.3,137.2,125.3,136.7,125.3L136.7,125.3z
				"/>
		</defs>
		<clipPath id="SVGID_59_">
			<use xlink:href="#SVGID_58_"  style="overflow:visible;"/>
		</clipPath>
		<linearGradient id="SVGID_60_" gradientUnits="userSpaceOnUse" x1="99.9408" y1="24.6517" x2="99.9408" y2="176.2961">
			<stop  offset="0" style="stop-color:#F68620"/>
			<stop  offset="0.6989" style="stop-color:#D92127"/>
		</linearGradient>
		<rect x="24.1" y="24.7" class="st24" width="151.6" height="151.6"/>
	</g>
	<g>
		<defs>
			<path id="SVGID_61_" d="M62.8,125.3c0,0-2.2,2.9-3.8,6.2c-0.5,1.1-1.4,2.7-1.9,3.8c-1,2.4-1.6,4.4-1.6,4.4c0,0-0.6,0-0.6,0
				c-1.8,0-10.3-0.4-15.2-10.8c-3.6-7.8-3.9-12.5-5.7-17.2c-2.9-7.7-7.6-8.1-7.6-8.1s3.4-0.1,5.1,0c5.2,0.2,7.5,2.9,11.2,9.4
				c0.2,0.3,0.3,0.5,0.4,0.7c1,1.5,2.2,3.5,4.5,5.8c4.4,4.5,10.8,5.6,14.2,5.9C62,125.3,62.4,125.3,62.8,125.3L62.8,125.3z"/>
		</defs>
		<clipPath id="SVGID_62_">
			<use xlink:href="#SVGID_61_"  style="overflow:visible;"/>
		</clipPath>
		<linearGradient id="SVGID_63_" gradientUnits="userSpaceOnUse" x1="99.8438" y1="24.6517" x2="99.8438" y2="176.2961">
			<stop  offset="0" style="stop-color:#F68620"/>
			<stop  offset="0.6989" style="stop-color:#D92127"/>
		</linearGradient>
		<rect x="24" y="24.7" class="st25" width="151.6" height="151.6"/>
	</g>
	<g>
		<defs>
			<path id="SVGID_64_" d="M124,144.6c-1.4,6.7-5.5,12.6-11.4,16.2c-0.9,0.5-2.1,1.2-2.9,1.6c-3,1.6-9.7,4.2-9.8,12.2l0,0l0,0
				c-0.2-8.1-7.4-11-9.5-12c-1.2-0.6-2.5-1.3-2.9-1.5c-6.1-3.5-10.3-9.5-11.7-16.4c0,0,0,0,0,0c-2.8,1.3-6.4,2.7-10.8,3.8l0,0.2
				c0,0.1,0,0.2,0,0.3c0,1.9,1,8.9,11.9,13.5c8.5,3.6,14.3,4.1,18.4,6.1c4.1,2.1,4.7,6.3,4.7,6.3h0c0-1.1,0.6-4.2,4.7-6.3
				c4.1-2,9.8-2.5,18.4-6.1c10.7-4.5,11.9-11.3,11.9-13.4l0-0.6C134.9,148.4,129.4,147.2,124,144.6L124,144.6z"/>
		</defs>
		<clipPath id="SVGID_65_">
			<use xlink:href="#SVGID_64_"  style="overflow:visible;"/>
		</clipPath>
		<linearGradient id="SVGID_66_" gradientUnits="userSpaceOnUse" x1="100.2824" y1="24.6517" x2="100.2824" y2="176.2961">
			<stop  offset="0" style="stop-color:#F68620"/>
			<stop  offset="0.6989" style="stop-color:#D92127"/>
		</linearGradient>
		<rect x="24.5" y="24.7" class="st26" width="151.6" height="151.6"/>
	</g>
	<g>
		<defs>
			<path id="SVGID_67_" d="M126.3,142.7c0,0,0.8,0.3,0.9,0.3c0.9,0.4,6.8,2.9,15.9,4c0,0,0.2,0,0.2,0l0-0.2c0,0,0-0.1,0-0.1
				c-1.4-8.8-4.9-14.3-4.9-14.3s0.2-1.4-0.1-3.2c-0.3-1.5-1.4-4-1.4-4c0,0,0.6,0.8,0.9,1.3c0.7,1.2,3.5,4.3,6.6,13.7
				c0.9,2.9,2,6.4,2.9,10.5c0,0.1,0.1,0.4,0.1,0.4s-0.4-0.1-0.5-0.1c-20.5-3.8-24-7.2-27.1-9c-1-0.6-1.7-1.5-1.7-1.5
				s2.7,1.7,5.5,2.1C124.7,142.8,126.3,142.7,126.3,142.7z"/>
		</defs>
		<clipPath id="SVGID_68_">
			<use xlink:href="#SVGID_67_"  style="overflow:visible;"/>
		</clipPath>
		<linearGradient id="SVGID_69_" gradientUnits="userSpaceOnUse" x1="99.9408" y1="24.6517" x2="99.9408" y2="176.2961">
			<stop  offset="0" style="stop-color:#F68620"/>
			<stop  offset="0.6989" style="stop-color:#D92127"/>
		</linearGradient>
		<rect x="24.1" y="24.7" class="st27" width="151.6" height="151.6"/>
	</g>
	<g>
		<defs>
			<path id="SVGID_70_" d="M129.9,142.3c1.8-0.4,3-0.8,4.5-0.8c1.9,0.1,3.1,0.5,3.9,1.2c0.2,0.1,0.3,0.3,0.4,0.4l-0.6-0.6
				c-0.1-0.1-0.1-0.1-0.2-0.2c-0.7-0.8-1.1-1.5-1.1-2.9c0-1.3,0.5-2.5,0.9-4.2l0.1-0.2l0.2,0.4c1,2.2,2.4,5.6,3.3,10.1
				c-4.9-0.7-8.7-1.9-11.1-2.7c0,0-0.5-0.2-0.9-0.3L129.9,142.3z"/>
		</defs>
		<clipPath id="SVGID_71_">
			<use xlink:href="#SVGID_70_"  style="overflow:visible;"/>
		</clipPath>
		<linearGradient id="SVGID_72_" gradientUnits="userSpaceOnUse" x1="99.9408" y1="24.6517" x2="99.9408" y2="176.2961">
			<stop  offset="0" style="stop-color:#F68620"/>
			<stop  offset="0.6989" style="stop-color:#D92127"/>
		</linearGradient>
		<rect x="24.1" y="24.7" class="st28" width="151.6" height="151.6"/>
	</g>
	<g>
		<defs>
			<path id="SVGID_73_" d="M73.3,142.7c0,0-0.8,0.3-0.9,0.3c-0.9,0.4-6.8,2.9-15.9,4c0,0-0.2,0-0.2,0l0-0.2c0,0,0-0.1,0-0.1
				c1.4-8.8,4.9-14.3,4.9-14.3s-0.2-1.4,0.1-3.2c0.3-1.5,1.4-4,1.4-4c0,0-0.7,0.8-1,1.4c-0.7,1.2-4.3,6.2-6.5,13.7
				c-0.8,2.9-1.9,6.3-2.9,10.3c0,0.1-0.1,0.4-0.1,0.4s0.4-0.1,0.5-0.1c20.5-3.8,23.3-6.7,26.6-8.6c0.6-0.3,1.7-1.4,1.7-1.4
				s-2.2,1.3-5.1,1.7C74.9,142.8,73.3,142.7,73.3,142.7z"/>
		</defs>
		<clipPath id="SVGID_74_">
			<use xlink:href="#SVGID_73_"  style="overflow:visible;"/>
		</clipPath>
		<linearGradient id="SVGID_75_" gradientUnits="userSpaceOnUse" x1="99.8446" y1="24.6517" x2="99.8446" y2="176.2961">
			<stop  offset="0" style="stop-color:#F68620"/>
			<stop  offset="0.6989" style="stop-color:#D92127"/>
		</linearGradient>
		<rect x="24" y="24.7" class="st29" width="151.6" height="151.6"/>
	</g>
	<g>
		<defs>
			<path id="SVGID_76_" d="M69.7,142.3c-1.8-0.4-3-0.8-4.5-0.8c-1.9,0.1-3.1,0.5-3.9,1.2c-0.2,0.1-0.3,0.3-0.4,0.4l0.6-0.6
				c0.1-0.1,0.1-0.1,0.2-0.2c0.7-0.8,1.1-1.5,1.1-2.9c0-1.3-0.5-2.5-0.9-4.2l-0.1-0.2l-0.2,0.4c-1,2.2-2.4,5.6-3.3,10.1
				c4.9-0.7,8.7-1.9,11.1-2.7c0,0,0.5-0.2,0.9-0.3L69.7,142.3z"/>
		</defs>
		<clipPath id="SVGID_77_">
			<use xlink:href="#SVGID_76_"  style="overflow:visible;"/>
		</clipPath>
		<linearGradient id="SVGID_78_" gradientUnits="userSpaceOnUse" x1="99.9408" y1="24.6517" x2="99.9408" y2="176.2961">
			<stop  offset="0" style="stop-color:#F68620"/>
			<stop  offset="0.6989" style="stop-color:#D92127"/>
		</linearGradient>
		<rect x="24.1" y="24.7" class="st30" width="151.6" height="151.6"/>
	</g>
	<g>
		<defs>
			<path id="SVGID_79_" d="M85.3,136.7c-0.1,1.3-0.1,2.6,0,3.4c0.1,2.4,1.1,8.3,7.1,11.8c0.4,0.2,0.9,0.5,1.4,0.7
				c1.9,1,4.9,2.7,5.9,7.7c0,0.2,0.3,0.1,0.4,0c1.1-5,3.4-6.3,5.5-7.4c0.6-0.3,1.2-0.6,1.8-1c5.6-3.4,6.8-8.8,7.1-11.8
				c0-0.3,0.1-1.8,0-3.4c0,0,0.9,1.4,1.8,2.3c1.4,1.3,2.8,2.5,5,4.1c0,0.1-0.4,1.7-0.4,1.8c-1.4,5.6-5,10.4-9.8,13.4
				c-0.7,0.5-1.9,1-2.6,1.4l-0.1,0.1c-0.2,0.1-0.5,0.2-0.7,0.4c-2.1,1-6.1,3.1-7.7,7c-1.5-3.9-6-6.2-7.6-7c-0.2-0.1-0.4-0.2-0.5-0.2
				c-1.7-0.9-2.6-1.3-2.8-1.5c-5.1-2.9-8.8-8-10.2-13.8l-0.3-1.5c1.9-1.4,4-3,5.3-4.4C84.4,137.9,85.3,136.7,85.3,136.7z"/>
		</defs>
		<clipPath id="SVGID_80_">
			<use xlink:href="#SVGID_79_"  style="overflow:visible;"/>
		</clipPath>
		<linearGradient id="SVGID_81_" gradientUnits="userSpaceOnUse" x1="99.8899" y1="24.6517" x2="99.8899" y2="176.2961">
			<stop  offset="0" style="stop-color:#F68620"/>
			<stop  offset="0.6989" style="stop-color:#D92127"/>
		</linearGradient>
		<rect x="24.1" y="24.7" class="st31" width="151.6" height="151.6"/>
	</g>
	<g>
		<defs>
			<path id="SVGID_82_" d="M112.7,135.3c0.4,1.9,0.3,4.1,0.3,4.7c-0.2,2.1-1,7.4-6.4,10.6c-2.8,1.7-6,2.6-6.6,6.2
				c-0.1,0.4-0.2,0.4-0.2,0c-0.7-3.7-4.2-4.8-6.6-6.2c-5.4-3.1-6.3-8.5-6.4-10.6c0-0.6-0.1-2.8,0.2-4.7c0,0,4.9,2,12.7,2.2
				C106.8,137.6,112.7,135.3,112.7,135.3z"/>
		</defs>
		<clipPath id="SVGID_83_">
			<use xlink:href="#SVGID_82_"  style="overflow:visible;"/>
		</clipPath>
		<linearGradient id="SVGID_84_" gradientUnits="userSpaceOnUse" x1="99.8899" y1="24.6517" x2="99.8899" y2="176.2961">
			<stop  offset="0" style="stop-color:#F68620"/>
			<stop  offset="0.6989" style="stop-color:#D92127"/>
		</linearGradient>
		<rect x="24.1" y="24.7" class="st32" width="151.6" height="151.6"/>
	</g>
	<g>
		<defs>
			<path id="SVGID_85_" d="M131.3,121.5c0.5,0.3,2,1.3,2.2,1.4c0.5,0.5,1.5,1.6,2.4,3.1c1.1,1.9,1.6,3.8,1.5,5.6
				c-0.1,2-0.5,3.3-0.9,4.5c-0.3,1.1-0.6,2-0.6,3.2c0,0.5,0.1,0.9,0.2,1.3c-0.5-0.1-1-0.1-1.6-0.2l-0.3,0c-1.1,0-2,0.2-3.1,0.5
				c-1.3,0.3-2.8,0.7-5,0.8c-0.2,0-0.4,0-0.5,0c-2,0-3.9-0.5-5.6-1.4c-2.5-1.3-4.6-3.7-5.4-5.7c1.1-0.4,2.9-1.2,5.1-2.5
				c1.2-0.7,2.6-1.6,4.1-2.8C127.2,126.8,130,123.2,131.3,121.5z"/>
		</defs>
		<clipPath id="SVGID_86_">
			<use xlink:href="#SVGID_85_"  style="overflow:visible;"/>
		</clipPath>
		<linearGradient id="SVGID_87_" gradientUnits="userSpaceOnUse" x1="100.2824" y1="24.6517" x2="100.2824" y2="176.2961">
			<stop  offset="0" style="stop-color:#F68620"/>
			<stop  offset="0.6989" style="stop-color:#D92127"/>
		</linearGradient>
		<rect x="24.5" y="24.7" class="st33" width="151.6" height="151.6"/>
	</g>
	<g>
		<defs>
			<path id="SVGID_88_" d="M68.4,121.5c-0.5,0.3-2,1.3-2.2,1.4c-0.5,0.5-1.5,1.6-2.4,3.1c-1.1,1.9-1.6,3.8-1.5,5.6
				c0.1,2,0.5,3.3,0.9,4.5c0.3,1.1,0.6,2,0.6,3.2c0,0.5-0.1,0.9-0.2,1.3c0.5-0.1,1-0.1,1.6-0.2l0.3,0c1.1,0,2,0.2,3.1,0.5
				c1.3,0.3,2.8,0.7,5,0.8c0.2,0,0.4,0,0.5,0c2,0,3.9-0.5,5.6-1.4c2.5-1.3,4.6-3.7,5.4-5.7c-1.1-0.4-2.9-1.2-5.1-2.5
				c-1.2-0.7-2.6-1.6-4.1-2.8C72.6,126.8,69.7,123.2,68.4,121.5z"/>
		</defs>
		<clipPath id="SVGID_89_">
			<use xlink:href="#SVGID_88_"  style="overflow:visible;"/>
		</clipPath>
		<linearGradient id="SVGID_90_" gradientUnits="userSpaceOnUse" x1="99.9408" y1="24.6517" x2="99.9408" y2="176.2961">
			<stop  offset="0" style="stop-color:#F68620"/>
			<stop  offset="0.6989" style="stop-color:#D92127"/>
		</linearGradient>
		<rect x="24.1" y="24.7" class="st34" width="151.6" height="151.6"/>
	</g>
</g>
</svg>
