<?xml version="1.0" encoding="utf-8"?>
<!-- Generator: Adobe Illustrator 24.2.3, SVG Export Plug-In . SVG Version: 6.00 Build 0)  -->
<svg version="1.1" id="Layer_1" xmlns="http://www.w3.org/2000/svg" xmlns:xlink="http://www.w3.org/1999/xlink" x="0px" y="0px"
	 viewBox="0 0 200 260" style="enable-background:new 0 0 200 260;" xml:space="preserve">
<style type="text/css">
	.st0{clip-path:url(#SVGID_2_);fill:url(#SVGID_3_);}
	.st1{fill:#6F3733;stroke:#2978BC;stroke-linecap:round;stroke-linejoin:round;stroke-miterlimit:10;}
	.st2{clip-path:url(#SVGID_5_);fill:url(#SVGID_6_);}
	.st3{clip-path:url(#SVGID_8_);fill:url(#SVGID_9_);}
	.st4{clip-path:url(#SVGID_11_);fill:url(#SVGID_12_);}
	.st5{clip-path:url(#SVGID_14_);fill:url(#SVGID_15_);}
	.st6{clip-path:url(#SVGID_17_);fill:url(#SVGID_18_);}
	.st7{fill:none;stroke:#FFFFFF;stroke-linecap:round;stroke-linejoin:round;stroke-miterlimit:10;}
	.st8{clip-path:url(#SVGID_20_);fill:url(#SVGID_21_);}
	.st9{clip-path:url(#SVGID_23_);fill:url(#SVGID_24_);}
	.st10{clip-path:url(#SVGID_26_);fill:url(#SVGID_27_);}
	.st11{clip-path:url(#SVGID_29_);fill:url(#SVGID_30_);}
	.st12{clip-path:url(#SVGID_32_);fill:url(#SVGID_33_);}
	.st13{clip-path:url(#SVGID_35_);fill:url(#SVGID_36_);}
	.st14{clip-path:url(#SVGID_38_);fill:url(#SVGID_39_);}
	.st15{clip-path:url(#SVGID_41_);fill:url(#SVGID_42_);}
	.st16{clip-path:url(#SVGID_44_);fill:url(#SVGID_45_);}
	.st17{clip-path:url(#SVGID_47_);fill:url(#SVGID_48_);stroke:#FFFFFF;stroke-miterlimit:10;}
	.st18{clip-path:url(#SVGID_50_);fill:url(#SVGID_51_);stroke:#FFFFFF;stroke-miterlimit:10;}
	.st19{clip-path:url(#SVGID_53_);fill:url(#SVGID_54_);}
	.st20{clip-path:url(#SVGID_56_);fill:url(#SVGID_57_);}
	.st21{clip-path:url(#SVGID_59_);fill:url(#SVGID_60_);}
	.st22{clip-path:url(#SVGID_62_);fill:url(#SVGID_63_);}
	.st23{clip-path:url(#SVGID_65_);fill:url(#SVGID_66_);}
	.st24{clip-path:url(#SVGID_68_);fill:url(#SVGID_69_);}
	.st25{clip-path:url(#SVGID_71_);fill:url(#SVGID_72_);}
	.st26{clip-path:url(#SVGID_74_);fill:url(#SVGID_75_);}
	.st27{clip-path:url(#SVGID_77_);fill:url(#SVGID_78_);}
	.st28{clip-path:url(#SVGID_80_);fill:url(#SVGID_81_);}
	.st29{clip-path:url(#SVGID_83_);fill:url(#SVGID_84_);}
	.st30{fill:none;}
	.st31{fill:#FBFAFB;}
	.st32{font-family:'Adequate-ExtraLight';}
	.st33{font-size:21.062px;}
</style>
<g>
	<defs>
		<path id="SVGID_1_" d="M60.7,103.7c-1.6-0.4-4-0.4-4.3-0.4c-0.3,0-0.5,0-0.6,0c-3.1,0.3-8.8,1.2-12.4,5c-2.2,2.2-3.3,4-4.4,5.7
			c-0.1,0.1-0.2,0.3-0.3,0.5c-3.9,6.7-8.4,11.4-13.4,14c4.8,2.7,9.4,7.4,13.5,14l0.2,0.3c1.1,1.7,2.3,3.5,4.4,5.7
			c3.7,3.7,9.4,4.7,12.4,5c0.1,0,0.2,0,0.4,0c0.3,0,2.6,0,4.4-0.5l0.3,0.5c0.7,1.1,1,1.5,1,1.5c-2.8,1.2-5.9,1.1-6.4,1
			c-3.5-0.3-9.8-1.4-14.1-5.7c-2.4-2.4-3.7-4.4-4.8-6.1c-1-1.5-8.2-13.9-18.6-15.4c-0.9-0.1-3.7-0.4-3.7-0.4s1.7,0.1,3.7-0.2
			c11.5-1.7,17.7-14.1,18.6-15.6c1.1-1.8,2.4-3.7,4.8-6.1c4.3-4.3,10.6-5.5,14.1-5.7c0.5,0,3.8-0.2,6.5,1.1c0,0-0.4,0.5-1.2,1.8
			L60.7,103.7z"/>
	</defs>
	<clipPath id="SVGID_2_">
		<use xlink:href="#SVGID_1_"  style="overflow:visible;"/>
	</clipPath>
	<linearGradient id="SVGID_3_" gradientUnits="userSpaceOnUse" x1="102.42" y1="33.3265" x2="102.42" y2="223.2654">
		<stop  offset="0" style="stop-color:#EF8000"/>
		<stop  offset="0.6989" style="stop-color:#D41218"/>
	</linearGradient>
	<rect x="7.5" y="33.3" class="st0" width="189.9" height="189.9"/>
</g>
<path class="st1" d="M145.6,117"/>
<path class="st1" d="M145.6,139.6"/>
<path class="st1" d="M137,139.6"/>
<g>
	<defs>
		<path id="SVGID_4_" d="M139.8,103.6c1.6-0.4,4-0.4,4.3-0.4c0.3,0,0.5,0,0.6,0c3.1,0.3,8.8,1.2,12.4,5c2.2,2.2,3.3,4,4.4,5.7
			c0.1,0.1,0.2,0.3,0.3,0.5c3.9,6.7,8.4,11.4,13.4,14c-4.8,2.7-9.4,7.4-13.5,14l-0.2,0.3c-1.1,1.7-2.3,3.5-4.4,5.7
			c-3.7,3.7-9.4,4.7-12.4,5c-0.1,0-0.2,0-0.4,0c-0.3,0-2.6,0-4.4-0.5l-0.3,0.5c-0.7,1.1-1,1.5-1,1.5c2.8,1.2,5.9,1.1,6.4,1
			c3.5-0.3,9.8-1.4,14.1-5.7c2.4-2.4,3.7-4.4,4.8-6.1c1-1.5,8.2-13.9,18.6-15.4c0.9-0.1,3.7-0.4,3.7-0.4s-1.7,0.1-3.7-0.2
			c-11.5-1.7-17.7-14.1-18.6-15.6c-1.1-1.8-2.4-3.7-4.8-6.1c-4.3-4.3-10.6-5.5-14.1-5.7c-0.5,0-3.8-0.2-6.5,1.1c0,0,0.4,0.5,1.2,1.8
			L139.8,103.6z"/>
	</defs>
	<clipPath id="SVGID_5_">
		<use xlink:href="#SVGID_4_"  style="overflow:visible;"/>
	</clipPath>
	<linearGradient id="SVGID_6_" gradientUnits="userSpaceOnUse" x1="102.42" y1="33.3265" x2="102.42" y2="223.2654">
		<stop  offset="0" style="stop-color:#EF8000"/>
		<stop  offset="0.6989" style="stop-color:#D41218"/>
	</linearGradient>
	<rect x="7.5" y="33.3" class="st2" width="189.9" height="189.9"/>
</g>
<g>
	<defs>
		<path id="SVGID_7_" d="M140.8,105.2c1-0.2,2.4-0.3,3.4-0.3c0.2,0,0.4,0,0.4,0c2.8,0.2,8,1.1,11.3,4.4c2,2.1,3.1,3.7,4.2,5.4
			c0.1,0.1,0.1,0.2,0.2,0.4l0.1,0.1c3.4,5.8,7.3,10.3,11.5,13.2c-4.2,2.9-8.1,7.3-11.6,13l-0.2,0.3c-1.1,1.7-2.2,3.3-4.2,5.4
			c-3.3,3.3-8.5,4.2-11.3,4.4c0,0-0.2,0-0.3,0c0,0,0,0-0.1,0c-1.4,0-2.5-0.1-3.4-0.3c0,0,6-9.4,6-22.2
			C146.9,114.4,140.8,105.2,140.8,105.2z"/>
	</defs>
	<clipPath id="SVGID_8_">
		<use xlink:href="#SVGID_7_"  style="overflow:visible;"/>
	</clipPath>
	<linearGradient id="SVGID_9_" gradientUnits="userSpaceOnUse" x1="102.42" y1="33.3265" x2="102.42" y2="223.2654">
		<stop  offset="0" style="stop-color:#EF8000"/>
		<stop  offset="0.6989" style="stop-color:#D41218"/>
	</linearGradient>
	<rect x="7.5" y="33.3" class="st3" width="189.9" height="189.9"/>
</g>
<g>
	<defs>
		<path id="SVGID_10_" d="M59.8,105.2c-1-0.2-2.4-0.3-3.4-0.3c-0.2,0-0.4,0-0.4,0c-2.8,0.2-8,1.1-11.3,4.4c-2,2.1-3.1,3.7-4.2,5.4
			c-0.1,0.1-0.1,0.2-0.2,0.4l-0.1,0.1c-3.4,5.8-7.3,10.3-11.5,13.2c4.2,2.9,8.1,7.3,11.6,13l0.2,0.3c1.1,1.7,2.2,3.3,4.2,5.4
			c3.3,3.3,8.5,4.2,11.3,4.4c0,0,0.2,0,0.3,0c0,0,0,0,0.1,0c1.4,0,2.5-0.1,3.4-0.3c0,0-6-9.4-6-22.2
			C53.7,114.4,59.8,105.2,59.8,105.2z"/>
	</defs>
	<clipPath id="SVGID_11_">
		<use xlink:href="#SVGID_10_"  style="overflow:visible;"/>
	</clipPath>
	<linearGradient id="SVGID_12_" gradientUnits="userSpaceOnUse" x1="102.42" y1="33.3265" x2="102.42" y2="223.2654">
		<stop  offset="0" style="stop-color:#EF8000"/>
		<stop  offset="0.6989" style="stop-color:#D41218"/>
	</linearGradient>
	<rect x="7.5" y="33.3" class="st4" width="189.9" height="189.9"/>
</g>
<g>
	<defs>
		
			<ellipse id="SVGID_13_" transform="matrix(0.2298 -0.9732 0.9732 0.2298 -47.6779 196.4887)" cx="100.3" cy="128.4" rx="32.2" ry="32.2"/>
	</defs>
	<clipPath id="SVGID_14_">
		<use xlink:href="#SVGID_13_"  style="overflow:visible;"/>
	</clipPath>
	<linearGradient id="SVGID_15_" gradientUnits="userSpaceOnUse" x1="102.3208" y1="37.7707" x2="102.3208" y2="218.8277">
		<stop  offset="0" style="stop-color:#EF8000"/>
		<stop  offset="0.6989" style="stop-color:#D41218"/>
	</linearGradient>
	<rect x="11.8" y="37.8" class="st5" width="181.1" height="181.1"/>
</g>
<g>
	<defs>
		<path id="SVGID_16_" d="M100.3,84.1c-24.5,0-44.3,19.8-44.3,44.3c0,8.6,2.4,16.5,6.6,23.3c7.8,12.6,21.7,21,37.6,21
			c24.5,0,44.3-19.8,44.3-44.3S124.8,84.1,100.3,84.1z M100.3,164.3c-19.8,0-35.9-16.1-35.9-35.9c0-19.8,16.1-35.9,35.9-35.9
			c19.8,0,35.9,16.1,35.9,35.9C136.2,148.2,120.1,164.3,100.3,164.3z"/>
	</defs>
	<clipPath id="SVGID_17_">
		<use xlink:href="#SVGID_16_"  style="overflow:visible;"/>
	</clipPath>
	<linearGradient id="SVGID_18_" gradientUnits="userSpaceOnUse" x1="82.8548" y1="38.2116" x2="82.8548" y2="218.5209">
		<stop  offset="0" style="stop-color:#EF8000"/>
		<stop  offset="0.6989" style="stop-color:#D41218"/>
	</linearGradient>
	<rect x="-7.3" y="38.2" class="st6" width="180.3" height="180.3"/>
</g>
<polyline class="st7" points="84.4,135.7 77,128.3 84.4,120.9 "/>
<polyline class="st7" points="107.8,144.2 100.3,151.6 92.8,144.2 "/>
<polyline class="st7" points="116.1,120.8 123.6,128.3 116.1,135.8 "/>
<polyline class="st7" points="92.8,112.4 100.3,105 107.8,112.4 "/>
<rect x="86" y="114" class="st7" width="28.6" height="28.6"/>
<g>
	<g>
		<defs>
			<path id="SVGID_19_" d="M56.4,96.1c0,0-2.6-3.5-4.5-7.4c-0.7-1.3-1.7-3.3-2.2-4.5c-1.2-2.9-2-5.2-2-5.2c0,0-0.7,0-0.7,0
				c-2.2,0-12.3,0.4-18,12.8c-4.3,9.2-4.7,14.8-6.8,20.5c-3.5,9.2-9,9.7-9,9.7s4,0.1,6,0c6.2-0.2,8.9-3.4,13.4-11.1
				c0.2-0.4,0.4-0.6,0.5-0.8c1.2-1.8,2.7-4.1,5.4-6.8c5.3-5.4,12.9-6.7,16.9-7C55.4,96.2,55.8,96.1,56.4,96.1L56.4,96.1z"/>
		</defs>
		<clipPath id="SVGID_20_">
			<use xlink:href="#SVGID_19_"  style="overflow:visible;"/>
		</clipPath>
		<linearGradient id="SVGID_21_" gradientUnits="userSpaceOnUse" x1="102.42" y1="33.3265" x2="102.42" y2="223.2654">
			<stop  offset="0" style="stop-color:#EF8000"/>
			<stop  offset="0.6989" style="stop-color:#D41218"/>
		</linearGradient>
		<rect x="7.5" y="33.3" class="st8" width="189.9" height="189.9"/>
	</g>
	<g>
		<g>
			<defs>
				<path id="SVGID_22_" d="M144.3,96.1c0,0,2.6-3.5,4.5-7.4c0.7-1.3,1.7-3.3,2.2-4.5c1.2-2.9,2-5.2,2-5.2c0,0,0.7,0,0.7,0
					c2.2,0,12.3,0.4,18,12.8c4.3,9.2,4.7,14.8,6.8,20.5c3.5,9.2,9,9.7,9,9.7s-4,0.1-6,0c-6.2-0.2-8.9-3.4-13.4-11.1
					c-0.2-0.4-0.4-0.6-0.5-0.8c-1.2-1.8-2.7-4.1-5.4-6.8c-5.3-5.4-12.9-6.7-16.9-7C145.3,96.2,144.8,96.1,144.3,96.1L144.3,96.1z"/>
			</defs>
			<clipPath id="SVGID_23_">
				<use xlink:href="#SVGID_22_"  style="overflow:visible;"/>
			</clipPath>
			<linearGradient id="SVGID_24_" gradientUnits="userSpaceOnUse" x1="102.42" y1="33.3265" x2="102.42" y2="223.2654">
				<stop  offset="0" style="stop-color:#EF8000"/>
				<stop  offset="0.6989" style="stop-color:#D41218"/>
			</linearGradient>
			<rect x="7.5" y="33.3" class="st9" width="189.9" height="189.9"/>
		</g>
		<g>
			<defs>
				<path id="SVGID_25_" d="M71.6,73.2c1.6-8,6.5-15,13.6-19.2c1-0.6,2.5-1.4,3.5-1.9c3.6-1.9,11.5-5,11.7-14.5l0,0l0,0
					c0.3,9.7,8.8,13.1,11.3,14.3c1.4,0.7,3,1.6,3.5,1.8c7.3,4.2,12.3,11.3,13.9,19.5c0,0,0,0,0.1,0c3.3-1.6,7.6-3.2,12.9-4.6l0-0.2
					c0-0.1,0-0.2,0-0.4c0-2.3-1.2-10.6-14.2-16.1c-10.1-4.2-17-4.8-21.8-7.2c-4.9-2.4-5.6-7.5-5.6-7.5h0c0,1.3-0.7,5-5.6,7.5
					c-4.9,2.4-11.7,3-21.8,7.2C60.1,57.4,58.7,65.4,58.6,68l0,0.8C58.6,68.7,65.1,70.1,71.6,73.2L71.6,73.2z"/>
			</defs>
			<clipPath id="SVGID_26_">
				<use xlink:href="#SVGID_25_"  style="overflow:visible;"/>
			</clipPath>
			<linearGradient id="SVGID_27_" gradientUnits="userSpaceOnUse" x1="100.2386" y1="33.6661" x2="100.2386" y2="223.605">
				<stop  offset="0" style="stop-color:#EF8000"/>
				<stop  offset="0.6989" style="stop-color:#D41218"/>
			</linearGradient>
			<rect x="5.3" y="33.7" class="st10" width="189.9" height="189.9"/>
		</g>
		<g>
			<defs>
				<path id="SVGID_28_" d="M68.8,75.4c0,0-1-0.3-1-0.4c-1.1-0.5-8.1-3.5-18.9-4.8c-0.1,0-0.2,0-0.2,0l0,0.3c0,0,0,0.1,0,0.1
					c1.7,10.4,5.8,17,5.8,17s-0.2,1.7,0.2,3.9c0.3,1.8,1.7,4.7,1.7,4.7c0,0-0.7-0.9-1.1-1.6c-0.8-1.4-4.2-5.1-7.9-16.3
					c-1.1-3.4-2.3-7.6-3.5-12.4c0-0.1-0.1-0.4-0.1-0.4s0.4,0.1,0.5,0.1c24.4,4.6,28.5,8.5,32.2,10.7c1.1,0.7,2,1.8,2,1.8
					s-3.2-2-6.6-2.5C70.7,75.3,68.8,75.4,68.8,75.4z"/>
			</defs>
			<clipPath id="SVGID_29_">
				<use xlink:href="#SVGID_28_"  style="overflow:visible;"/>
			</clipPath>
			<linearGradient id="SVGID_30_" gradientUnits="userSpaceOnUse" x1="100.3624" y1="33.6661" x2="100.3624" y2="223.605">
				<stop  offset="0" style="stop-color:#EF8000"/>
				<stop  offset="0.6989" style="stop-color:#D41218"/>
			</linearGradient>
			<rect x="5.4" y="33.7" class="st11" width="189.9" height="189.9"/>
		</g>
		<g>
			<defs>
				<path id="SVGID_31_" d="M64.5,75.9c-2.1,0.4-3.6,1-5.3,0.9c-2.2-0.1-3.7-0.6-4.7-1.4c-0.2-0.2-0.4-0.3-0.5-0.4l0.7,0.7
					c0.1,0.1,0.1,0.1,0.2,0.2c0.8,1,1.3,1.8,1.3,3.5c0,1.6-0.6,3-1.1,5l-0.1,0.3l-0.3-0.5c-1.2-2.6-2.9-6.7-4-12
					c5.8,0.9,10.3,2.2,13.1,3.2c0,0,0.6,0.2,1,0.4L64.5,75.9z"/>
			</defs>
			<clipPath id="SVGID_32_">
				<use xlink:href="#SVGID_31_"  style="overflow:visible;"/>
			</clipPath>
			<linearGradient id="SVGID_33_" gradientUnits="userSpaceOnUse" x1="100.3624" y1="33.6661" x2="100.3624" y2="223.605">
				<stop  offset="0" style="stop-color:#EF8000"/>
				<stop  offset="0.6989" style="stop-color:#D41218"/>
			</linearGradient>
			<rect x="5.4" y="33.7" class="st12" width="189.9" height="189.9"/>
		</g>
		<g>
			<defs>
				<path id="SVGID_34_" d="M131.8,75.4c0,0,1-0.3,1-0.4c1.1-0.5,8.1-3.5,18.9-4.8c0.1,0,0.2,0,0.2,0l0,0.3c0,0,0,0.1,0,0.1
					c-1.7,10.4-5.8,17-5.8,17s0.2,1.7-0.2,3.9c-0.3,1.8-1.6,4.7-1.6,4.7c0,0,0.8-0.9,1.2-1.7c0.8-1.4,5.1-7.4,7.7-16.3
					c1-3.4,2.3-7.4,3.4-12.3c0-0.1,0.1-0.4,0.1-0.4s-0.4,0.1-0.5,0.1c-24.4,4.6-27.7,8-31.6,10.3c-0.7,0.4-2,1.7-2,1.7s2.7-1.5,6-2
					C129.9,75.3,131.8,75.4,131.8,75.4z"/>
			</defs>
			<clipPath id="SVGID_35_">
				<use xlink:href="#SVGID_34_"  style="overflow:visible;"/>
			</clipPath>
			<linearGradient id="SVGID_36_" gradientUnits="userSpaceOnUse" x1="100.2386" y1="33.6661" x2="100.2386" y2="223.605">
				<stop  offset="0" style="stop-color:#EF8000"/>
				<stop  offset="0.6989" style="stop-color:#D41218"/>
			</linearGradient>
			<rect x="5.3" y="33.7" class="st13" width="189.9" height="189.9"/>
		</g>
		<g>
			<defs>
				<path id="SVGID_37_" d="M136.1,75.9c2.1,0.4,3.6,1,5.3,0.9c2.2-0.1,3.7-0.6,4.7-1.4c0.2-0.2,0.4-0.3,0.5-0.4l-0.7,0.7
					c-0.1,0.1-0.1,0.1-0.2,0.2c-0.8,1-1.3,1.8-1.3,3.5c0,1.6,0.6,3,1.1,5l0.1,0.3l0.3-0.5c1.2-2.6,2.9-6.7,4-12
					c-5.8,0.9-10.3,2.2-13.1,3.2c0,0-0.6,0.2-1,0.4L136.1,75.9z"/>
			</defs>
			<clipPath id="SVGID_38_">
				<use xlink:href="#SVGID_37_"  style="overflow:visible;"/>
			</clipPath>
			<linearGradient id="SVGID_39_" gradientUnits="userSpaceOnUse" x1="100.3624" y1="33.6661" x2="100.3624" y2="223.605">
				<stop  offset="0" style="stop-color:#EF8000"/>
				<stop  offset="0.6989" style="stop-color:#D41218"/>
			</linearGradient>
			<rect x="5.4" y="33.7" class="st14" width="189.9" height="189.9"/>
		</g>
		<g>
			<defs>
				<path id="SVGID_40_" d="M117.6,82.6c0.1-1.6,0.1-3.1,0-4.1c-0.2-2.9-1.3-9.9-8.5-14c-0.5-0.3-1.1-0.6-1.6-0.9
					c-2.2-1.1-5.8-3.2-7.1-9.1c0-0.2-0.4-0.2-0.4,0.1c-1.3,6-4,7.5-6.5,8.8c-0.7,0.4-1.4,0.8-2.1,1.2c-6.7,4.1-8.1,10.5-8.4,14
					c0,0.4-0.1,2.2,0,4c0,0-1.1-1.6-2.2-2.7c-1.6-1.5-3.3-3-6-4.9c0-0.1,0.5-2,0.5-2.1C76.9,66.3,81.2,60.5,87,57
					c0.9-0.5,2.2-1.2,3.2-1.7l0.1-0.1c0.3-0.1,0.6-0.3,0.9-0.4c2.5-1.2,7.3-3.7,9.2-8.3c1.8,4.6,7.1,7.4,9,8.3
					c0.2,0.1,0.4,0.2,0.6,0.3c2,1.1,3.1,1.6,3.4,1.8c6.1,3.5,10.5,9.5,12.1,16.4l0.4,1.8c-2.3,1.6-4.7,3.6-6.3,5.3
					C118.6,81.2,117.6,82.6,117.6,82.6z"/>
			</defs>
			<clipPath id="SVGID_41_">
				<use xlink:href="#SVGID_40_"  style="overflow:visible;"/>
			</clipPath>
			<linearGradient id="SVGID_42_" gradientUnits="userSpaceOnUse" x1="100.2386" y1="33.6661" x2="100.2386" y2="223.605">
				<stop  offset="0" style="stop-color:#EF8000"/>
				<stop  offset="0.6989" style="stop-color:#D41218"/>
			</linearGradient>
			<rect x="5.3" y="33.7" class="st15" width="189.9" height="189.9"/>
		</g>
		<g>
			<defs>
				<path id="SVGID_43_" d="M85,84.2c-0.5-2.3-0.4-4.9-0.3-5.6c0.2-2.5,1.2-8.8,7.6-12.6c3.3-2,7.1-3,7.9-7.4c0.1-0.4,0.2-0.4,0.3,0
					c0.8,4.4,5,5.7,7.9,7.3c6.4,3.7,7.5,10.1,7.6,12.6c0,0.7,0.1,3.3-0.2,5.6c0,0-5.9-2.4-15.2-2.6C92,81.5,85,84.2,85,84.2z"/>
			</defs>
			<clipPath id="SVGID_44_">
				<use xlink:href="#SVGID_43_"  style="overflow:visible;"/>
			</clipPath>
			<linearGradient id="SVGID_45_" gradientUnits="userSpaceOnUse" x1="100.2386" y1="33.6661" x2="100.2386" y2="223.605">
				<stop  offset="0" style="stop-color:#EF8000"/>
				<stop  offset="0.6989" style="stop-color:#D41218"/>
			</linearGradient>
			<rect x="5.3" y="33.7" class="st16" width="189.9" height="189.9"/>
		</g>
		<g>
			<defs>
				<path id="SVGID_46_" d="M62.9,100.6c-0.6-0.4-2.3-1.5-2.6-1.7c-0.6-0.6-1.8-1.9-2.8-3.6c-1.3-2.2-1.9-4.5-1.7-6.7
					c0.2-2.3,0.6-3.9,1-5.3c0.4-1.3,0.7-2.4,0.7-3.8c0-0.6-0.1-1.1-0.2-1.6c0.6,0.1,1.2,0.2,1.9,0.2l0.3,0c1.3,0,2.4-0.3,3.7-0.6
					c1.6-0.4,3.4-0.8,6-0.9c0.2,0,0.4,0,0.6,0c2.4,0,4.7,0.5,6.7,1.6c3,1.6,5.4,4.4,6.4,6.8c-1.3,0.5-3.4,1.4-6.1,3
					c-1.4,0.8-3.1,2-4.9,3.3C67.8,94.3,64.4,98.6,62.9,100.6z"/>
			</defs>
			<clipPath id="SVGID_47_">
				<use xlink:href="#SVGID_46_"  style="overflow:visible;"/>
			</clipPath>
			<linearGradient id="SVGID_48_" gradientUnits="userSpaceOnUse" x1="95.7167" y1="37.3282" x2="95.7167" y2="224.7897">
				<stop  offset="0" style="stop-color:#EF8000"/>
				<stop  offset="0.6989" style="stop-color:#D41218"/>
			</linearGradient>
			<polygon class="st17" points="2,224.8 2,37.3 189.4,37.3 189.4,224.8 			"/>
		</g>
		<g>
			<defs>
				<path id="SVGID_49_" d="M137.6,100.6c0.6-0.4,2.3-1.5,2.6-1.7c0.6-0.6,1.8-1.9,2.8-3.6c1.3-2.2,1.9-4.5,1.7-6.7
					c-0.2-2.3-0.6-3.9-1-5.3c-0.4-1.3-0.7-2.4-0.7-3.8c0-0.6,0.1-1.1,0.2-1.6c-0.6,0.1-1.2,0.2-1.9,0.2l-0.3,0
					c-1.3,0-2.4-0.3-3.7-0.6c-1.6-0.4-3.4-0.8-6-0.9c-0.2,0-0.4,0-0.6,0c-2.4,0-4.7,0.5-6.7,1.6c-3,1.6-5.4,4.4-6.4,6.8
					c1.3,0.5,3.4,1.4,6.1,3c1.4,0.8,3.1,2,4.9,3.3C132.7,94.3,136.1,98.6,137.6,100.6z"/>
			</defs>
			<clipPath id="SVGID_50_">
				<use xlink:href="#SVGID_49_"  style="overflow:visible;"/>
			</clipPath>
			
				<linearGradient id="SVGID_51_" gradientUnits="userSpaceOnUse" x1="92.9419" y1="37.3282" x2="92.9419" y2="224.7897" gradientTransform="matrix(-1 0 0 1 197.746 0)">
				<stop  offset="0" style="stop-color:#EF8000"/>
				<stop  offset="0.6989" style="stop-color:#D41218"/>
			</linearGradient>
			<polygon class="st18" points="198.5,224.8 198.5,37.3 11.1,37.3 11.1,224.8 			"/>
		</g>
	</g>
</g>
<g>
	<defs>
		<path id="SVGID_52_" d="M144.1,160.3c0,0,2.6,3.5,4.5,7.4c0.7,1.3,1.7,3.3,2.2,4.5c1.2,2.9,2,5.2,2,5.2c0,0,0.7,0,0.7,0
			c2.2,0,12.3-0.4,18-12.8c4.3-9.2,4.7-14.8,6.8-20.5c3.5-9.2,9-9.7,9-9.7s-4-0.1-6,0c-6.2,0.2-8.9,3.4-13.4,11.1
			c-0.2,0.4-0.4,0.6-0.5,0.8c-1.2,1.8-2.7,4.1-5.4,6.8c-5.3,5.4-12.9,6.7-16.9,7C145,160.3,144.6,160.3,144.1,160.3L144.1,160.3z"/>
	</defs>
	<clipPath id="SVGID_53_">
		<use xlink:href="#SVGID_52_"  style="overflow:visible;"/>
	</clipPath>
	<linearGradient id="SVGID_54_" gradientUnits="userSpaceOnUse" x1="100.2991" y1="40.6813" x2="100.2991" y2="220.9907">
		<stop  offset="0" style="stop-color:#EF8000"/>
		<stop  offset="0.6989" style="stop-color:#D41218"/>
	</linearGradient>
	<rect x="10.1" y="40.7" class="st19" width="180.3" height="180.3"/>
</g>
<g>
	<defs>
		<path id="SVGID_55_" d="M56.2,160.3c0,0-2.6,3.5-4.5,7.4c-0.7,1.3-1.7,3.3-2.2,4.5c-1.2,2.9-2,5.2-2,5.2c0,0-0.7,0-0.7,0
			c-2.2,0-12.3-0.4-18-12.8c-4.3-9.2-4.7-14.8-6.8-20.5c-3.5-9.2-9-9.7-9-9.7s4-0.1,6,0c6.2,0.2,8.9,3.4,13.4,11.1
			c0.2,0.4,0.4,0.6,0.5,0.8c1.2,1.8,2.7,4.1,5.4,6.8c5.3,5.4,12.9,6.7,16.9,7C55.2,160.3,55.6,160.3,56.2,160.3L56.2,160.3z"/>
	</defs>
	<clipPath id="SVGID_56_">
		<use xlink:href="#SVGID_55_"  style="overflow:visible;"/>
	</clipPath>
	<linearGradient id="SVGID_57_" gradientUnits="userSpaceOnUse" x1="100.1838" y1="40.6813" x2="100.1838" y2="220.9907">
		<stop  offset="0" style="stop-color:#EF8000"/>
		<stop  offset="0.6989" style="stop-color:#D41218"/>
	</linearGradient>
	<rect x="10" y="40.7" class="st20" width="180.3" height="180.3"/>
</g>
<g>
	<defs>
		<path id="SVGID_58_" d="M128.9,183.3c-1.6,8-6.5,15-13.6,19.2c-1,0.6-2.5,1.4-3.5,1.9c-3.6,1.9-11.5,5-11.7,14.5l0,0l0,0
			c-0.3-9.7-8.8-13.1-11.3-14.3c-1.4-0.7-3-1.6-3.5-1.8c-7.3-4.2-12.3-11.3-13.9-19.5c0,0,0,0-0.1,0c-3.3,1.6-7.6,3.2-12.9,4.6
			l0,0.2c0,0.1,0,0.2,0,0.4c0,2.3,1.2,10.6,14.2,16.1c10.1,4.2,17,4.8,21.8,7.2c4.9,2.4,5.6,7.5,5.6,7.5h0c0-1.3,0.7-5,5.6-7.5
			c4.9-2.4,11.7-3,21.8-7.2c12.7-5.3,14.1-13.4,14.2-15.9l0-0.8C141.9,187.8,135.4,186.4,128.9,183.3L128.9,183.3z"/>
	</defs>
	<clipPath id="SVGID_59_">
		<use xlink:href="#SVGID_58_"  style="overflow:visible;"/>
	</clipPath>
	<linearGradient id="SVGID_60_" gradientUnits="userSpaceOnUse" x1="100.7052" y1="40.6813" x2="100.7052" y2="220.9907">
		<stop  offset="0" style="stop-color:#EF8000"/>
		<stop  offset="0.6989" style="stop-color:#D41218"/>
	</linearGradient>
	<rect x="10.6" y="40.7" class="st21" width="180.3" height="180.3"/>
</g>
<g>
	<defs>
		<path id="SVGID_61_" d="M131.6,181.1c0,0,1,0.3,1,0.4c1.1,0.5,8.1,3.5,18.9,4.8c0.1,0,0.2,0,0.2,0l0-0.3c0,0,0-0.1,0-0.1
			c-1.7-10.4-5.8-17-5.8-17s0.2-1.7-0.2-3.9c-0.3-1.8-1.7-4.7-1.7-4.7c0,0,0.7,0.9,1.1,1.6c0.8,1.4,4.2,5.1,7.9,16.3
			c1.1,3.4,2.3,7.6,3.5,12.4c0,0.1,0.1,0.4,0.1,0.4s-0.4-0.1-0.5-0.1c-24.4-4.6-28.5-8.5-32.2-10.7c-1.1-0.7-2-1.8-2-1.8
			s3.2,2,6.6,2.5C129.8,181.2,131.6,181.1,131.6,181.1z"/>
	</defs>
	<clipPath id="SVGID_62_">
		<use xlink:href="#SVGID_61_"  style="overflow:visible;"/>
	</clipPath>
	<linearGradient id="SVGID_63_" gradientUnits="userSpaceOnUse" x1="100.2991" y1="40.6813" x2="100.2991" y2="220.9907">
		<stop  offset="0" style="stop-color:#EF8000"/>
		<stop  offset="0.6989" style="stop-color:#D41218"/>
	</linearGradient>
	<rect x="10.1" y="40.7" class="st22" width="180.3" height="180.3"/>
</g>
<g>
	<defs>
		<path id="SVGID_64_" d="M135.9,180.5c2.1-0.4,3.6-1,5.3-0.9c2.2,0.1,3.7,0.6,4.7,1.4c0.2,0.2,0.4,0.3,0.5,0.4l-0.7-0.7
			c-0.1-0.1-0.1-0.1-0.2-0.2c-0.8-1-1.3-1.8-1.3-3.5c0-1.6,0.6-3,1.1-5l0.1-0.3l0.3,0.5c1.2,2.6,2.9,6.7,4,12
			c-5.8-0.9-10.3-2.2-13.1-3.2c0,0-0.6-0.2-1-0.4L135.9,180.5z"/>
	</defs>
	<clipPath id="SVGID_65_">
		<use xlink:href="#SVGID_64_"  style="overflow:visible;"/>
	</clipPath>
	<linearGradient id="SVGID_66_" gradientUnits="userSpaceOnUse" x1="100.2991" y1="40.6813" x2="100.2991" y2="220.9907">
		<stop  offset="0" style="stop-color:#EF8000"/>
		<stop  offset="0.6989" style="stop-color:#D41218"/>
	</linearGradient>
	<rect x="10.1" y="40.7" class="st23" width="180.3" height="180.3"/>
</g>
<g>
	<defs>
		<path id="SVGID_67_" d="M68.7,181.1c0,0-1,0.3-1,0.4c-1.1,0.5-8.1,3.5-18.9,4.8c-0.1,0-0.2,0-0.2,0l0-0.3c0,0,0-0.1,0-0.1
			c1.7-10.4,5.8-17,5.8-17s-0.2-1.7,0.2-3.9c0.3-1.8,1.6-4.7,1.6-4.7c0,0-0.8,0.9-1.2,1.7c-0.8,1.4-5.1,7.4-7.7,16.3
			c-1,3.4-2.3,7.4-3.4,12.3c0,0.1-0.1,0.4-0.1,0.4s0.4-0.1,0.5-0.1c24.4-4.6,27.7-8,31.6-10.3c0.7-0.4,2-1.7,2-1.7s-2.7,1.5-6,2
			C70.5,181.2,68.7,181.1,68.7,181.1z"/>
	</defs>
	<clipPath id="SVGID_68_">
		<use xlink:href="#SVGID_67_"  style="overflow:visible;"/>
	</clipPath>
	<linearGradient id="SVGID_69_" gradientUnits="userSpaceOnUse" x1="100.1847" y1="40.6813" x2="100.1847" y2="220.9907">
		<stop  offset="0" style="stop-color:#EF8000"/>
		<stop  offset="0.6989" style="stop-color:#D41218"/>
	</linearGradient>
	<rect x="10" y="40.7" class="st24" width="180.3" height="180.3"/>
</g>
<g>
	<defs>
		<path id="SVGID_70_" d="M64.4,180.5c-2.1-0.4-3.6-1-5.3-0.9c-2.2,0.1-3.7,0.6-4.7,1.4c-0.2,0.2-0.4,0.3-0.5,0.4l0.7-0.7
			c0.1-0.1,0.1-0.1,0.2-0.2c0.8-1,1.3-1.8,1.3-3.5c0-1.6-0.6-3-1.1-5l-0.1-0.3l-0.3,0.5c-1.2,2.6-2.9,6.7-4,12
			c5.8-0.9,10.3-2.2,13.1-3.2c0,0,0.6-0.2,1-0.4L64.4,180.5z"/>
	</defs>
	<clipPath id="SVGID_71_">
		<use xlink:href="#SVGID_70_"  style="overflow:visible;"/>
	</clipPath>
	<linearGradient id="SVGID_72_" gradientUnits="userSpaceOnUse" x1="100.2991" y1="40.6813" x2="100.2991" y2="220.9907">
		<stop  offset="0" style="stop-color:#EF8000"/>
		<stop  offset="0.6989" style="stop-color:#D41218"/>
	</linearGradient>
	<rect x="10.1" y="40.7" class="st25" width="180.3" height="180.3"/>
</g>
<g>
	<defs>
		<path id="SVGID_73_" d="M82.8,173.9c-0.1,1.6-0.1,3.1,0,4.1c0.2,2.9,1.3,9.9,8.5,14c0.5,0.3,1.1,0.6,1.6,0.9
			c2.2,1.1,5.8,3.2,7.1,9.1c0,0.2,0.4,0.2,0.4-0.1c1.3-6,4-7.5,6.5-8.8c0.7-0.4,1.4-0.8,2.1-1.2c6.7-4.1,8.1-10.5,8.4-14
			c0-0.4,0.1-2.2,0-4c0,0,1.1,1.6,2.2,2.7c1.6,1.5,3.3,3,6,4.9c0,0.1-0.5,2-0.5,2.1c-1.7,6.6-5.9,12.4-11.7,15.9
			c-0.9,0.5-2.2,1.2-3.2,1.7l-0.1,0.1c-0.3,0.1-0.6,0.3-0.9,0.4c-2.5,1.2-7.3,3.7-9.2,8.3c-1.8-4.6-7.1-7.4-9-8.3
			c-0.2-0.1-0.4-0.2-0.6-0.3c-2-1.1-3.1-1.6-3.4-1.8c-6.1-3.5-10.5-9.5-12.1-16.4l-0.4-1.8c2.3-1.6,4.7-3.6,6.3-5.3
			C81.8,175.3,82.8,173.9,82.8,173.9z"/>
	</defs>
	<clipPath id="SVGID_74_">
		<use xlink:href="#SVGID_73_"  style="overflow:visible;"/>
	</clipPath>
	<linearGradient id="SVGID_75_" gradientUnits="userSpaceOnUse" x1="100.2386" y1="40.6813" x2="100.2386" y2="220.9907">
		<stop  offset="0" style="stop-color:#EF8000"/>
		<stop  offset="0.6989" style="stop-color:#D41218"/>
	</linearGradient>
	<rect x="10.1" y="40.7" class="st26" width="180.3" height="180.3"/>
</g>
<g>
	<defs>
		<path id="SVGID_76_" d="M115.5,172.3c0.5,2.3,0.4,4.9,0.3,5.6c-0.2,2.5-1.2,8.8-7.6,12.6c-3.3,2-7.1,3-7.9,7.4
			c-0.1,0.4-0.2,0.4-0.3,0c-0.8-4.4-5-5.7-7.9-7.3c-6.4-3.7-7.5-10.1-7.6-12.6c0-0.7-0.1-3.3,0.2-5.6c0,0,5.9,2.4,15.2,2.6
			C108.4,175,115.5,172.3,115.5,172.3z"/>
	</defs>
	<clipPath id="SVGID_77_">
		<use xlink:href="#SVGID_76_"  style="overflow:visible;"/>
	</clipPath>
	<linearGradient id="SVGID_78_" gradientUnits="userSpaceOnUse" x1="100.2386" y1="40.6813" x2="100.2386" y2="220.9907">
		<stop  offset="0" style="stop-color:#EF8000"/>
		<stop  offset="0.6989" style="stop-color:#D41218"/>
	</linearGradient>
	<rect x="10.1" y="40.7" class="st27" width="180.3" height="180.3"/>
</g>
<g>
	<defs>
		<path id="SVGID_79_" d="M137.6,155.9c0.6,0.4,2.3,1.5,2.6,1.7c0.6,0.6,1.8,1.9,2.8,3.6c1.3,2.2,1.9,4.5,1.7,6.7
			c-0.2,2.3-0.6,3.9-1,5.3c-0.4,1.3-0.7,2.4-0.7,3.8c0,0.6,0.1,1.1,0.2,1.6c-0.6-0.1-1.2-0.2-1.9-0.2l-0.3,0c-1.3,0-2.4,0.3-3.7,0.6
			c-1.6,0.4-3.4,0.8-6,0.9c-0.2,0-0.4,0-0.6,0c-2.4,0-4.7-0.5-6.7-1.6c-3-1.6-5.4-4.4-6.4-6.8c1.3-0.5,3.4-1.4,6.1-3
			c1.4-0.8,3.1-2,4.9-3.3C132.7,162.2,136.1,157.8,137.6,155.9z"/>
	</defs>
	<clipPath id="SVGID_80_">
		<use xlink:href="#SVGID_79_"  style="overflow:visible;"/>
	</clipPath>
	<linearGradient id="SVGID_81_" gradientUnits="userSpaceOnUse" x1="100.7052" y1="40.6813" x2="100.7052" y2="220.9907">
		<stop  offset="0" style="stop-color:#EF8000"/>
		<stop  offset="0.6989" style="stop-color:#D41218"/>
	</linearGradient>
	<rect x="10.6" y="40.7" class="st28" width="180.3" height="180.3"/>
</g>
<g>
	<defs>
		<path id="SVGID_82_" d="M62.8,155.9c-0.6,0.4-2.3,1.5-2.6,1.7c-0.6,0.6-1.8,1.9-2.8,3.6c-1.3,2.2-1.9,4.5-1.7,6.7
			c0.2,2.3,0.6,3.9,1,5.3c0.4,1.3,0.7,2.4,0.7,3.8c0,0.6-0.1,1.1-0.2,1.6c0.6-0.1,1.2-0.2,1.9-0.2l0.3,0c1.3,0,2.4,0.3,3.7,0.6
			c1.6,0.4,3.4,0.8,6,0.9c0.2,0,0.4,0,0.6,0c2.4,0,4.7-0.5,6.7-1.6c3-1.6,5.4-4.4,6.4-6.8c-1.3-0.5-3.4-1.4-6.1-3
			c-1.4-0.8-3.1-2-4.9-3.3C67.7,162.2,64.3,157.8,62.8,155.9z"/>
	</defs>
	<clipPath id="SVGID_83_">
		<use xlink:href="#SVGID_82_"  style="overflow:visible;"/>
	</clipPath>
	<linearGradient id="SVGID_84_" gradientUnits="userSpaceOnUse" x1="100.2991" y1="40.6813" x2="100.2991" y2="220.9907">
		<stop  offset="0" style="stop-color:#EF8000"/>
		<stop  offset="0.6989" style="stop-color:#D41218"/>
	</linearGradient>
	<rect x="10.1" y="40.7" class="st29" width="180.3" height="180.3"/>
</g>
<rect x="90" y="119.5" class="st30" width="27" height="20.5"/>
<text transform="matrix(1 0 0 1 89.9939 137.4716)" class="st31 st32 st33">M</text>
<path class="st31" d="M109.1,120.9H91.8c0,0-0.1,0-0.1-0.1v-0.4c0,0,0-0.1,0.1-0.1h17.3c0,0,0.1,0,0.1,0.1L109.1,120.9
	C109.2,120.8,109.1,120.9,109.1,120.9z"/>
</svg>
