<?xml version="1.0" encoding="utf-8"?>
<!-- Generator: Adobe Illustrator 24.2.3, SVG Export Plug-In . SVG Version: 6.00 Build 0)  -->
<svg version="1.1" id="Layer_1" xmlns="http://www.w3.org/2000/svg" xmlns:xlink="http://www.w3.org/1999/xlink" x="0px" y="0px"
	 viewBox="0 0 500 500" style="enable-background:new 0 0 500 500;" xml:space="preserve">
<style type="text/css">
	.st0{fill:#12100B;}
	.st1{clip-path:url(#SVGID_2_);fill:url(#SVGID_3_);}
	.st2{fill:#6F3734;stroke:#2978BD;stroke-linecap:round;stroke-linejoin:round;stroke-miterlimit:10;}
	.st3{clip-path:url(#SVGID_5_);fill:url(#SVGID_6_);}
	.st4{clip-path:url(#SVGID_8_);fill:url(#SVGID_9_);}
	.st5{clip-path:url(#SVGID_11_);fill:url(#SVGID_12_);}
	.st6{clip-path:url(#SVGID_14_);fill:url(#SVGID_15_);}
	.st7{clip-path:url(#SVGID_17_);fill:url(#SVGID_18_);}
	.st8{font-family:'CalistoMT';}
	.st9{font-size:33.0162px;}
	.st10{fill:none;stroke:#FFFFFF;stroke-linecap:round;stroke-linejoin:round;stroke-miterlimit:10;}
	.st11{clip-path:url(#SVGID_20_);fill:url(#SVGID_21_);}
	.st12{clip-path:url(#SVGID_23_);fill:url(#SVGID_24_);}
	.st13{clip-path:url(#SVGID_26_);fill:url(#SVGID_27_);}
	.st14{clip-path:url(#SVGID_29_);fill:url(#SVGID_30_);}
	.st15{clip-path:url(#SVGID_32_);fill:url(#SVGID_33_);}
	.st16{clip-path:url(#SVGID_35_);fill:url(#SVGID_36_);}
	.st17{clip-path:url(#SVGID_38_);fill:url(#SVGID_39_);}
	.st18{clip-path:url(#SVGID_41_);fill:url(#SVGID_42_);}
	.st19{clip-path:url(#SVGID_44_);fill:url(#SVGID_45_);}
	.st20{clip-path:url(#SVGID_47_);fill:url(#SVGID_48_);stroke:#FFFFFF;stroke-miterlimit:10;}
	.st21{clip-path:url(#SVGID_50_);fill:url(#SVGID_51_);stroke:#FFFFFF;stroke-miterlimit:10;}
	.st22{clip-path:url(#SVGID_53_);fill:url(#SVGID_54_);}
	.st23{clip-path:url(#SVGID_56_);fill:url(#SVGID_57_);}
	.st24{clip-path:url(#SVGID_59_);fill:url(#SVGID_60_);}
	.st25{clip-path:url(#SVGID_62_);fill:url(#SVGID_63_);}
	.st26{clip-path:url(#SVGID_65_);fill:url(#SVGID_66_);}
	.st27{clip-path:url(#SVGID_68_);fill:url(#SVGID_69_);}
	.st28{clip-path:url(#SVGID_71_);fill:url(#SVGID_72_);}
	.st29{clip-path:url(#SVGID_74_);fill:url(#SVGID_75_);}
	.st30{clip-path:url(#SVGID_77_);fill:url(#SVGID_78_);}
	.st31{clip-path:url(#SVGID_80_);fill:url(#SVGID_81_);}
	.st32{clip-path:url(#SVGID_83_);fill:url(#SVGID_84_);}
	.st33{fill:none;}
	.st34{fill:#FCFBFC;}
	.st35{font-family:'Adequate-ExtraLight';}
	.st36{font-size:21.062px;}
	.st37{fill:none;stroke:#000000;stroke-miterlimit:10;}
</style>
<g>
	<path class="st0" d="M248.5,195.1c-1.4-1.8-3.9-3.7-6.6-4.4c-0.9-0.2-1.7-0.4-4-0.4c-1.7,0-4.2,0.7-5.3,1.2
		c-2.1,0.8-3.9,1.6-5.6,2.4c-0.2,0-0.8-0.4-2-1.1c-3-1.8-6-2.6-8.9-2.6c-2.3,0-4.6,0.5-6.8,1.6c-5,2.4-7.5,6-7.5,10.9
		c0,3.9,2.2,7.5,6.7,10.8c3.4,2.5,7,4.5,10.9,5.8l-6.4-6.1c-2.9-2.8-4.4-5.7-4.4-8.8c0-1.5,0.5-3,1.4-4.5c2.2-3.4,5.2-5.1,9.1-5.1
		c3,0,4.6,0.5,4.6,1.6c0,0.1-0.3,0.6-0.8,1.4c-1.5,2.3-2.2,4.4-2.2,6.3l6.9,2.8c1.6-8.1,6.1-12.3,13.4-12.6c1.2,0,2.4,0.1,3.6,0.6
		c2.5,0.9,3.8,2.4,3.8,4.6c0,2.2-0.9,4.4-2.8,6.4c-1.7,1.9-3.8,3.4-6.3,4.7c-2.6,1.4-5.1,2.1-7.5,2.3c3.9,3.9,6.1,5.9,6.5,5.9
		c0.5,0,1.6-0.6,3.4-1.9c1.4-1,2.5-1.8,3.2-2.4c3.7-3.3,5.6-7.2,5.6-11.8C250.6,199.5,249.9,197,248.5,195.1"/>
	<path class="st0" d="M280.3,204.8c0,2.2-0.8,4.4-2.3,6.9c-2,3.2-4.9,4.8-8.8,4.8c-2.9,0-4.9-1.5-6.2-4.6c-0.6-1.5-0.9-3-0.9-4.4
		v-20.9h-6.5v18.8c0,2.3,0.6,4.5,1.9,6.5c2.8,4.3,6.7,6.5,11.8,6.5c1.6,0,2.9-0.2,4.1-0.5c1.9-0.5,4.2-1.7,6.8-3.6v2.7l3.8,1.7
		c1.5,0.6,2.5,1.1,3,1.4v-28.3h-6.9V204.8z"/>
	<path class="st0" d="M294.6,186.5v29.8c0.1,0,1.2,0.5,3.2,1.5l1.8,0.9c0.4,0.2,0.7,0.3,0.9,0.4v-32.6H294.6z"/>
	<path class="st0" d="M333.7,194.5c-1.4-2.8-4.7-4.2-9.8-4.2c-1.2,0-2.4,0.1-3.7,0.3c-2.8,0.5-5.2,1.6-8.4,3.5
		c-1,0.6-2.4,1.7-2.7,1.9v2.5c1.3-0.4,2.6-0.9,4-1.5c3-1.2,6.3-1.9,10-2c1.6,0,2.9,0.1,3.8,0.6c0.9,0.4,1.9,1.3,2.9,2.5v3.1
		c-2-1.5-4.6-2.2-7.8-2.2c-5.3,0-9.8,1.8-13.4,5.3c-1.8,1.8-2.8,3.6-2.8,5.5c0,1.6,0.6,3.1,1.8,4.5c2.4,2.7,5.8,4.1,10.3,4.1
		c3.2,0,6-0.6,8.5-1.7c0.8-0.4,1.7-0.9,2.9-1.6c0.3,0.2,0.4,0.7,0.4,1.4c3.1,1.3,4.9,2,5.4,2.2v-12.8
		C335.2,200.1,334.7,196.3,333.7,194.5 M325.3,211.3c-3.5,2.1-7.3,3.1-11.5,3.1c-3.2,0-5.1-0.8-5.6-2.4c0-0.9,0.6-2,1.7-3.3
		c2.9-3.4,6.7-5.1,11.4-5.1c1.3,0,2.9,0.3,4.9,1c2.4,0.8,3.6,1.7,3.6,2.6C329.8,208.1,328.3,209.5,325.3,211.3"/>
	<path class="st0" d="M441.8,194.5c-1.4-2.8-4.7-4.2-9.8-4.2c-1.2,0-2.4,0.1-3.7,0.3c-2.8,0.5-5.2,1.6-8.4,3.5
		c-1,0.6-2.4,1.7-2.7,1.9v2.5c1.3-0.4,2.6-0.9,4-1.5c3-1.2,6.3-1.9,10-2c1.6,0,2.9,0.1,3.8,0.6c0.9,0.4,1.9,1.3,2.9,2.5v3.1
		c-2-1.5-4.6-2.2-7.8-2.2c-5.3,0-9.8,1.8-13.4,5.3c-1.8,1.8-2.8,3.6-2.8,5.5c0,1.6,0.6,3.1,1.8,4.5c2.4,2.7,5.8,4.1,10.3,4.1
		c3.2,0,6.1-0.6,8.5-1.7c0.8-0.4,1.7-0.9,2.9-1.6c0.3,0.2,0.4,0.7,0.4,1.4c3.1,1.3,4.9,2,5.4,2.2v-12.8
		C443.2,200.1,442.7,196.3,441.8,194.5 M433.3,211.3c-3.5,2.1-7.3,3.1-11.5,3.1c-3.2,0-5.1-0.8-5.6-2.4c0-0.9,0.6-2,1.7-3.3
		c2.9-3.4,6.7-5.1,11.4-5.1c1.3,0,2.9,0.3,4.9,1c2.4,0.8,3.6,1.7,3.6,2.6C437.8,208.1,436.3,209.5,433.3,211.3"/>
	<path class="st0" d="M365.7,186.5v12.7c-3-3.3-4.9-5.2-5.7-5.8c-2.4-2-4.9-3-7.3-3c-3.8,0-7,1.6-9.7,4.8c-2.4,2.8-3.6,5.3-3.6,7.5
		c0,2.4,0.8,4.8,2.6,7.3c1.5,2.1,3.4,3.9,5.6,5.5c2.6,1.8,5.1,2.8,7.3,2.8c3.5,0,7.1-2.3,10.8-7v4.8l6.2,2.6v-32.1
		C371.8,186.5,365.7,186.5,365.7,186.5 M361.5,206.9c-1.4,1.8-2.9,3.4-4.5,4.7c-2.3,1.8-4.5,2.7-6.5,2.7c-2,0-3.6-0.8-4.8-2.5
		c-1.1-1.5-1.7-3.2-1.7-5.3c0-3.7,2.2-6.9,6.6-9.6c2-1.2,3.7-1.9,5.1-1.9c1.8,0,3.6,0.6,5.3,1.7c1.9,1.2,2.9,2.7,2.9,4.5
		C364.1,202.8,363.2,204.7,361.5,206.9"/>
	<path class="st0" d="M396.4,190.4c-1.5,0-2.8,0.2-4,0.6c-2.1,0.8-4.4,2.4-6.8,5.1v-9.6h-6.5v28.7l6.3,3.3v-13.2
		c0-1.7,0.7-3.5,2.1-5.4c1.3-1.7,3-3.2,4.9-4.5c2.2-1.4,4.3-2.1,6.2-2.2c2.1,0,3.7,0.8,4.9,2.5c1,1.4,1.5,3.2,1.5,5.4
		c0,3.6-1,6.6-3,9c-1.8,2.1-3.4,3.9-4.8,5.3l5.5,3.3c0.6-0.4,1.4-1.2,2.6-2.3c3.4-3.3,5.2-7,5.2-11.2c0-2.3-0.6-4.6-1.8-6.9
		C406,193.1,401.9,190.4,396.4,190.4"/>
	<path class="st0" d="M466.4,190.3c-1.6,0-3.1,0.3-4.6,0.8c-3.1,1-5.1,2-6,3v-2.5h-6.5v24.6l6.5,3.3v-14.1c0-4,2-7.7,6.1-11
		c2-1.6,3.8-2.5,5.6-2.5c0.8,0,1.7,0.2,2.5,0.7c1,0.5,1.5,1.2,1.5,1.9c0,1.4-0.8,2.7-2.4,3.8c-1.4,1-2.8,1.5-4.4,1.7l5.1,5.7
		c1.5-0.7,2.9-1.7,4.3-3.1c1.6-1.6,2.4-3.1,2.4-4.4c0-1.5-0.6-2.9-1.7-4.1C472.5,191.5,469.7,190.3,466.4,190.3"/>
</g>
<g>
	<defs>
		<path id="SVGID_1_" d="M71.4,204c-1.6-0.4-4-0.4-4.3-0.4c-0.3,0-0.5,0-0.6,0c-3.1,0.3-8.8,1.2-12.4,5c-2.2,2.2-3.3,4-4.4,5.7
			c-0.1,0.1-0.2,0.3-0.3,0.5c-3.9,6.7-8.4,11.4-13.4,14c4.8,2.7,9.4,7.4,13.5,14l0.2,0.3c1.1,1.7,2.3,3.5,4.4,5.7
			c3.7,3.7,9.4,4.7,12.4,5c0.1,0,0.2,0,0.4,0c0.3,0,2.6,0,4.4-0.5l0.3,0.5c0.7,1.1,1,1.5,1,1.5c-2.8,1.2-5.9,1.1-6.4,1
			c-3.5-0.3-9.8-1.4-14.1-5.7c-2.4-2.4-3.7-4.4-4.8-6.1c-1-1.5-8.2-13.9-18.6-15.4c-0.9-0.1-3.7-0.4-3.7-0.4s1.7,0.1,3.7-0.2
			c11.5-1.7,17.7-14.1,18.6-15.6c1.1-1.8,2.4-3.7,4.8-6.1c4.3-4.3,10.6-5.5,14.1-5.7c0.5,0,3.8-0.2,6.5,1.1c0,0-0.4,0.5-1.2,1.8
			L71.4,204z"/>
	</defs>
	<clipPath id="SVGID_2_">
		<use xlink:href="#SVGID_1_"  style="overflow:visible;"/>
	</clipPath>
	<linearGradient id="SVGID_3_" gradientUnits="userSpaceOnUse" x1="113.0481" y1="133.6309" x2="113.0481" y2="323.5698">
		<stop  offset="0" style="stop-color:#F08100"/>
		<stop  offset="0.6989" style="stop-color:#D51318"/>
	</linearGradient>
	<rect x="18.1" y="133.6" class="st1" width="189.9" height="189.9"/>
</g>
<path class="st2" d="M156.2,217.3"/>
<path class="st2" d="M156.2,239.9"/>
<path class="st2" d="M147.6,239.9"/>
<g>
	<defs>
		<path id="SVGID_4_" d="M150.5,203.9c1.6-0.4,4-0.4,4.3-0.4c0.3,0,0.5,0,0.6,0c3.1,0.3,8.8,1.2,12.4,5c2.2,2.2,3.3,4,4.4,5.7
			c0.1,0.1,0.2,0.3,0.3,0.5c3.9,6.7,8.4,11.4,13.4,14c-4.8,2.7-9.4,7.4-13.5,14l-0.2,0.3c-1.1,1.7-2.3,3.5-4.4,5.7
			c-3.7,3.7-9.4,4.7-12.4,5c-0.1,0-0.2,0-0.4,0c-0.3,0-2.6,0-4.4-0.5l-0.3,0.5c-0.7,1.1-1,1.5-1,1.5c2.8,1.2,5.9,1.1,6.4,1
			c3.5-0.3,9.8-1.4,14.1-5.7c2.4-2.4,3.7-4.4,4.8-6.1c1-1.5,8.2-13.9,18.6-15.4c0.9-0.1,3.7-0.4,3.7-0.4s-1.7,0.1-3.7-0.2
			c-11.5-1.7-17.7-14.1-18.6-15.6c-1.1-1.8-2.4-3.7-4.8-6.1c-4.3-4.3-10.6-5.5-14.1-5.7c-0.5,0-3.8-0.2-6.5,1.1c0,0,0.4,0.5,1.2,1.8
			L150.5,203.9z"/>
	</defs>
	<clipPath id="SVGID_5_">
		<use xlink:href="#SVGID_4_"  style="overflow:visible;"/>
	</clipPath>
	<linearGradient id="SVGID_6_" gradientUnits="userSpaceOnUse" x1="113.0481" y1="133.6309" x2="113.0481" y2="323.5698">
		<stop  offset="0" style="stop-color:#F08100"/>
		<stop  offset="0.6989" style="stop-color:#D51318"/>
	</linearGradient>
	<rect x="18.1" y="133.6" class="st3" width="189.9" height="189.9"/>
</g>
<g>
	<defs>
		<path id="SVGID_7_" d="M151.4,205.5c1-0.2,2.4-0.3,3.4-0.3c0.2,0,0.4,0,0.4,0c2.8,0.2,8,1.1,11.3,4.4c2,2.1,3.1,3.7,4.2,5.4
			c0.1,0.1,0.1,0.2,0.2,0.4l0.1,0.1c3.4,5.8,7.3,10.3,11.5,13.2c-4.2,2.9-8.1,7.3-11.6,13l-0.2,0.3c-1.1,1.7-2.2,3.3-4.2,5.4
			c-3.3,3.3-8.5,4.2-11.3,4.4c0,0-0.2,0-0.3,0c0,0,0,0-0.1,0c-1.4,0-2.5-0.1-3.4-0.3c0,0,6-9.4,6-22.2
			C157.6,214.7,151.4,205.5,151.4,205.5z"/>
	</defs>
	<clipPath id="SVGID_8_">
		<use xlink:href="#SVGID_7_"  style="overflow:visible;"/>
	</clipPath>
	<linearGradient id="SVGID_9_" gradientUnits="userSpaceOnUse" x1="113.0481" y1="133.6309" x2="113.0481" y2="323.5698">
		<stop  offset="0" style="stop-color:#F08100"/>
		<stop  offset="0.6989" style="stop-color:#D51318"/>
	</linearGradient>
	<rect x="18.1" y="133.6" class="st4" width="189.9" height="189.9"/>
</g>
<g>
	<defs>
		<path id="SVGID_10_" d="M70.4,205.5c-1-0.2-2.4-0.3-3.4-0.3c-0.2,0-0.4,0-0.4,0c-2.8,0.2-8,1.1-11.3,4.4c-2,2.1-3.1,3.7-4.2,5.4
			c-0.1,0.1-0.1,0.2-0.2,0.4l-0.1,0.1c-3.4,5.8-7.3,10.3-11.5,13.2c4.2,2.9,8.1,7.3,11.6,13l0.2,0.3c1.1,1.7,2.2,3.3,4.2,5.4
			c3.3,3.3,8.5,4.2,11.3,4.4c0,0,0.2,0,0.3,0c0,0,0,0,0.1,0c1.4,0,2.5-0.1,3.4-0.3c0,0-6-9.4-6-22.2
			C64.3,214.7,70.4,205.5,70.4,205.5z"/>
	</defs>
	<clipPath id="SVGID_11_">
		<use xlink:href="#SVGID_10_"  style="overflow:visible;"/>
	</clipPath>
	<linearGradient id="SVGID_12_" gradientUnits="userSpaceOnUse" x1="113.0481" y1="133.6309" x2="113.0481" y2="323.5698">
		<stop  offset="0" style="stop-color:#F08100"/>
		<stop  offset="0.6989" style="stop-color:#D51318"/>
	</linearGradient>
	<rect x="18.1" y="133.6" class="st5" width="189.9" height="189.9"/>
</g>
<g>
	<defs>
		
			<ellipse id="SVGID_13_" transform="matrix(0.2298 -0.9732 0.9732 0.2298 -137.1129 284.0918)" cx="110.9" cy="228.7" rx="32.2" ry="32.2"/>
	</defs>
	<clipPath id="SVGID_14_">
		<use xlink:href="#SVGID_13_"  style="overflow:visible;"/>
	</clipPath>
	<linearGradient id="SVGID_15_" gradientUnits="userSpaceOnUse" x1="112.9489" y1="138.0752" x2="112.9489" y2="319.1321">
		<stop  offset="0" style="stop-color:#F08100"/>
		<stop  offset="0.6989" style="stop-color:#D51318"/>
	</linearGradient>
	<rect x="22.4" y="138.1" class="st6" width="181.1" height="181.1"/>
</g>
<g>
	<defs>
		<path id="SVGID_16_" d="M110.9,184.4c-24.5,0-44.3,19.8-44.3,44.3c0,8.6,2.4,16.5,6.6,23.3c7.8,12.6,21.7,21,37.6,21
			c24.5,0,44.3-19.8,44.3-44.3S135.4,184.4,110.9,184.4z M110.9,264.6c-19.8,0-35.9-16.1-35.9-35.9c0-19.8,16.1-35.9,35.9-35.9
			c19.8,0,35.9,16.1,35.9,35.9C146.8,248.5,130.7,264.6,110.9,264.6z"/>
	</defs>
	<clipPath id="SVGID_17_">
		<use xlink:href="#SVGID_16_"  style="overflow:visible;"/>
	</clipPath>
	<linearGradient id="SVGID_18_" gradientUnits="userSpaceOnUse" x1="93.4829" y1="138.516" x2="93.4829" y2="318.8254">
		<stop  offset="0" style="stop-color:#F08100"/>
		<stop  offset="0.6989" style="stop-color:#D51318"/>
	</linearGradient>
	<rect x="3.3" y="138.5" class="st7" width="180.3" height="180.3"/>
</g>
<text transform="matrix(1.0083 0 0 1 201.9745 257.1067)" class="st0 st8 st9">Agronomics </text>
<polyline class="st10" points="95,236 87.6,228.6 95,221.2 "/>
<polyline class="st10" points="118.4,244.5 110.9,251.9 103.5,244.5 "/>
<polyline class="st10" points="126.8,221.1 134.3,228.6 126.8,236.1 "/>
<polyline class="st10" points="103.5,212.7 110.9,205.3 118.4,212.7 "/>
<rect x="96.6" y="214.3" class="st10" width="28.6" height="28.6"/>
<g>
	<g>
		<defs>
			<path id="SVGID_19_" d="M67,196.4c0,0-2.6-3.5-4.5-7.4c-0.7-1.3-1.7-3.3-2.2-4.5c-1.2-2.9-2-5.2-2-5.2c0,0-0.7,0-0.7,0
				c-2.2,0-12.3,0.4-18,12.8c-4.3,9.2-4.7,14.8-6.8,20.5c-3.5,9.2-9,9.7-9,9.7s4,0.1,6,0c6.2-0.2,8.9-3.4,13.4-11.1
				c0.2-0.4,0.4-0.6,0.5-0.8c1.2-1.8,2.7-4.1,5.4-6.8c5.3-5.4,12.9-6.7,16.9-7C66,196.5,66.4,196.4,67,196.4L67,196.4z"/>
		</defs>
		<clipPath id="SVGID_20_">
			<use xlink:href="#SVGID_19_"  style="overflow:visible;"/>
		</clipPath>
		<linearGradient id="SVGID_21_" gradientUnits="userSpaceOnUse" x1="113.0481" y1="133.6309" x2="113.0481" y2="323.5698">
			<stop  offset="0" style="stop-color:#F08100"/>
			<stop  offset="0.6989" style="stop-color:#D51318"/>
		</linearGradient>
		<rect x="18.1" y="133.6" class="st11" width="189.9" height="189.9"/>
	</g>
	<g>
		<g>
			<defs>
				<path id="SVGID_22_" d="M154.9,196.4c0,0,2.6-3.5,4.5-7.4c0.7-1.3,1.7-3.3,2.2-4.5c1.2-2.9,2-5.2,2-5.2c0,0,0.7,0,0.7,0
					c2.2,0,12.3,0.4,18,12.8c4.3,9.2,4.7,14.8,6.8,20.5c3.5,9.2,9,9.7,9,9.7s-4,0.1-6,0c-6.2-0.2-8.9-3.4-13.4-11.1
					c-0.2-0.4-0.4-0.6-0.5-0.8c-1.2-1.8-2.7-4.1-5.4-6.8c-5.3-5.4-12.9-6.7-16.9-7C155.9,196.5,155.5,196.4,154.9,196.4L154.9,196.4
					z"/>
			</defs>
			<clipPath id="SVGID_23_">
				<use xlink:href="#SVGID_22_"  style="overflow:visible;"/>
			</clipPath>
			<linearGradient id="SVGID_24_" gradientUnits="userSpaceOnUse" x1="113.0481" y1="133.6309" x2="113.0481" y2="323.5698">
				<stop  offset="0" style="stop-color:#F08100"/>
				<stop  offset="0.6989" style="stop-color:#D51318"/>
			</linearGradient>
			<rect x="18.1" y="133.6" class="st12" width="189.9" height="189.9"/>
		</g>
		<g>
			<defs>
				<path id="SVGID_25_" d="M82.2,173.5c1.6-8,6.5-15,13.6-19.2c1-0.6,2.5-1.4,3.5-1.9c3.6-1.9,11.5-5,11.7-14.5l0,0l0,0
					c0.3,9.7,8.8,13.1,11.3,14.3c1.4,0.7,3,1.6,3.5,1.8c7.3,4.2,12.3,11.3,13.9,19.5c0,0,0,0,0.1,0c3.3-1.6,7.6-3.2,12.9-4.6l0-0.2
					c0-0.1,0-0.2,0-0.4c0-2.3-1.2-10.6-14.2-16.1c-10.1-4.2-17-4.8-21.8-7.2c-4.9-2.4-5.6-7.5-5.6-7.5h0c0,1.3-0.7,5-5.6,7.5
					c-4.9,2.4-11.7,3-21.8,7.2c-12.7,5.3-14.1,13.4-14.2,15.9l0,0.8C69.2,169,75.7,170.4,82.2,173.5L82.2,173.5z"/>
			</defs>
			<clipPath id="SVGID_26_">
				<use xlink:href="#SVGID_25_"  style="overflow:visible;"/>
			</clipPath>
			<linearGradient id="SVGID_27_" gradientUnits="userSpaceOnUse" x1="110.8666" y1="133.9705" x2="110.8666" y2="323.9094">
				<stop  offset="0" style="stop-color:#F08100"/>
				<stop  offset="0.6989" style="stop-color:#D51318"/>
			</linearGradient>
			<rect x="15.9" y="134" class="st13" width="189.9" height="189.9"/>
		</g>
		<g>
			<defs>
				<path id="SVGID_28_" d="M79.5,175.7c0,0-1-0.3-1-0.4c-1.1-0.5-8.1-3.5-18.9-4.8c-0.1,0-0.2,0-0.2,0l0,0.3c0,0,0,0.1,0,0.1
					c1.7,10.4,5.8,17,5.8,17s-0.2,1.7,0.2,3.9c0.3,1.8,1.7,4.7,1.7,4.7c0,0-0.7-0.9-1.1-1.6c-0.8-1.4-4.2-5.1-7.9-16.3
					c-1.1-3.4-2.3-7.6-3.5-12.4c0-0.1-0.1-0.4-0.1-0.4s0.4,0.1,0.5,0.1c24.4,4.6,28.5,8.5,32.2,10.7c1.1,0.7,2,1.8,2,1.8
					s-3.2-2-6.6-2.5C81.3,175.6,79.5,175.7,79.5,175.7z"/>
			</defs>
			<clipPath id="SVGID_29_">
				<use xlink:href="#SVGID_28_"  style="overflow:visible;"/>
			</clipPath>
			<linearGradient id="SVGID_30_" gradientUnits="userSpaceOnUse" x1="110.9905" y1="133.9705" x2="110.9905" y2="323.9094">
				<stop  offset="0" style="stop-color:#F08100"/>
				<stop  offset="0.6989" style="stop-color:#D51318"/>
			</linearGradient>
			<rect x="16" y="134" class="st14" width="189.9" height="189.9"/>
		</g>
		<g>
			<defs>
				<path id="SVGID_31_" d="M75.2,176.2c-2.1,0.4-3.6,1-5.3,0.9c-2.2-0.1-3.7-0.6-4.7-1.4c-0.2-0.2-0.4-0.3-0.5-0.4l0.7,0.7
					c0.1,0.1,0.1,0.1,0.2,0.2c0.8,1,1.3,1.8,1.3,3.5c0,1.6-0.6,3-1.1,5l-0.1,0.3l-0.3-0.5c-1.2-2.6-2.9-6.7-4-12
					c5.8,0.9,10.3,2.2,13.1,3.2c0,0,0.6,0.2,1,0.4L75.2,176.2z"/>
			</defs>
			<clipPath id="SVGID_32_">
				<use xlink:href="#SVGID_31_"  style="overflow:visible;"/>
			</clipPath>
			<linearGradient id="SVGID_33_" gradientUnits="userSpaceOnUse" x1="110.9905" y1="133.9705" x2="110.9905" y2="323.9094">
				<stop  offset="0" style="stop-color:#F08100"/>
				<stop  offset="0.6989" style="stop-color:#D51318"/>
			</linearGradient>
			<rect x="16" y="134" class="st15" width="189.9" height="189.9"/>
		</g>
		<g>
			<defs>
				<path id="SVGID_34_" d="M142.4,175.7c0,0,1-0.3,1-0.4c1.1-0.5,8.1-3.5,18.9-4.8c0.1,0,0.2,0,0.2,0l0,0.3c0,0,0,0.1,0,0.1
					c-1.7,10.4-5.8,17-5.8,17s0.2,1.7-0.2,3.9c-0.3,1.8-1.6,4.7-1.6,4.7c0,0,0.8-0.9,1.2-1.7c0.8-1.4,5.1-7.4,7.7-16.3
					c1-3.4,2.3-7.4,3.4-12.3c0-0.1,0.1-0.4,0.1-0.4s-0.4,0.1-0.5,0.1c-24.4,4.6-27.7,8-31.6,10.3c-0.7,0.4-2,1.7-2,1.7s2.7-1.5,6-2
					C140.6,175.6,142.4,175.7,142.4,175.7z"/>
			</defs>
			<clipPath id="SVGID_35_">
				<use xlink:href="#SVGID_34_"  style="overflow:visible;"/>
			</clipPath>
			<linearGradient id="SVGID_36_" gradientUnits="userSpaceOnUse" x1="110.8666" y1="133.9705" x2="110.8666" y2="323.9094">
				<stop  offset="0" style="stop-color:#F08100"/>
				<stop  offset="0.6989" style="stop-color:#D51318"/>
			</linearGradient>
			<rect x="15.9" y="134" class="st16" width="189.9" height="189.9"/>
		</g>
		<g>
			<defs>
				<path id="SVGID_37_" d="M146.7,176.2c2.1,0.4,3.6,1,5.3,0.9c2.2-0.1,3.7-0.6,4.7-1.4c0.2-0.2,0.4-0.3,0.5-0.4l-0.7,0.7
					c-0.1,0.1-0.1,0.1-0.2,0.2c-0.8,1-1.3,1.8-1.3,3.5c0,1.6,0.6,3,1.1,5l0.1,0.3l0.3-0.5c1.2-2.6,2.9-6.7,4-12
					c-5.8,0.9-10.3,2.2-13.1,3.2c0,0-0.6,0.2-1,0.4L146.7,176.2z"/>
			</defs>
			<clipPath id="SVGID_38_">
				<use xlink:href="#SVGID_37_"  style="overflow:visible;"/>
			</clipPath>
			<linearGradient id="SVGID_39_" gradientUnits="userSpaceOnUse" x1="110.9905" y1="133.9705" x2="110.9905" y2="323.9094">
				<stop  offset="0" style="stop-color:#F08100"/>
				<stop  offset="0.6989" style="stop-color:#D51318"/>
			</linearGradient>
			<rect x="16" y="134" class="st17" width="189.9" height="189.9"/>
		</g>
		<g>
			<defs>
				<path id="SVGID_40_" d="M128.2,182.9c0.1-1.6,0.1-3.1,0-4.1c-0.2-2.9-1.3-9.9-8.5-14c-0.5-0.3-1.1-0.6-1.6-0.9
					c-2.2-1.1-5.8-3.2-7.1-9.1c0-0.2-0.4-0.2-0.4,0.1c-1.3,6-4,7.5-6.5,8.8c-0.7,0.4-1.4,0.8-2.1,1.2c-6.7,4.1-8.1,10.5-8.4,14
					c0,0.4-0.1,2.2,0,4c0,0-1.1-1.6-2.2-2.7c-1.6-1.5-3.3-3-6-4.9c0-0.1,0.5-2,0.5-2.1c1.7-6.6,5.9-12.4,11.7-15.9
					c0.9-0.5,2.2-1.2,3.2-1.7l0.1-0.1c0.3-0.1,0.6-0.3,0.9-0.4c2.5-1.2,7.3-3.7,9.2-8.3c1.8,4.6,7.1,7.4,9,8.3
					c0.2,0.1,0.4,0.2,0.6,0.3c2,1.1,3.1,1.6,3.4,1.8c6.1,3.5,10.5,9.5,12.1,16.4l0.4,1.8c-2.3,1.6-4.7,3.6-6.3,5.3
					C129.2,181.5,128.2,182.9,128.2,182.9z"/>
			</defs>
			<clipPath id="SVGID_41_">
				<use xlink:href="#SVGID_40_"  style="overflow:visible;"/>
			</clipPath>
			<linearGradient id="SVGID_42_" gradientUnits="userSpaceOnUse" x1="110.8666" y1="133.9705" x2="110.8666" y2="323.9094">
				<stop  offset="0" style="stop-color:#F08100"/>
				<stop  offset="0.6989" style="stop-color:#D51318"/>
			</linearGradient>
			<rect x="15.9" y="134" class="st18" width="189.9" height="189.9"/>
		</g>
		<g>
			<defs>
				<path id="SVGID_43_" d="M95.6,184.5c-0.5-2.3-0.4-4.9-0.3-5.6c0.2-2.5,1.2-8.8,7.6-12.6c3.3-2,7.1-3,7.9-7.4
					c0.1-0.4,0.2-0.4,0.3,0c0.8,4.4,5,5.7,7.9,7.3c6.4,3.7,7.5,10.1,7.6,12.6c0,0.7,0.1,3.3-0.2,5.6c0,0-5.9-2.4-15.2-2.6
					C102.7,181.8,95.6,184.5,95.6,184.5z"/>
			</defs>
			<clipPath id="SVGID_44_">
				<use xlink:href="#SVGID_43_"  style="overflow:visible;"/>
			</clipPath>
			<linearGradient id="SVGID_45_" gradientUnits="userSpaceOnUse" x1="110.8666" y1="133.9705" x2="110.8666" y2="323.9094">
				<stop  offset="0" style="stop-color:#F08100"/>
				<stop  offset="0.6989" style="stop-color:#D51318"/>
			</linearGradient>
			<rect x="15.9" y="134" class="st19" width="189.9" height="189.9"/>
		</g>
		<g>
			<defs>
				<path id="SVGID_46_" d="M73.5,200.9c-0.6-0.4-2.3-1.5-2.6-1.7c-0.6-0.6-1.8-1.9-2.8-3.6c-1.3-2.2-1.9-4.5-1.7-6.7
					c0.2-2.3,0.6-3.9,1-5.3c0.4-1.3,0.7-2.4,0.7-3.8c0-0.6-0.1-1.1-0.2-1.6c0.6,0.1,1.2,0.2,1.9,0.2l0.3,0c1.3,0,2.4-0.3,3.7-0.6
					c1.6-0.4,3.4-0.8,6-0.9c0.2,0,0.4,0,0.6,0c2.4,0,4.7,0.5,6.7,1.6c3,1.6,5.4,4.4,6.4,6.8c-1.3,0.5-3.4,1.4-6.1,3
					c-1.4,0.8-3.1,2-4.9,3.3C78.4,194.6,75,198.9,73.5,200.9z"/>
			</defs>
			<clipPath id="SVGID_47_">
				<use xlink:href="#SVGID_46_"  style="overflow:visible;"/>
			</clipPath>
			<linearGradient id="SVGID_48_" gradientUnits="userSpaceOnUse" x1="106.3447" y1="137.6327" x2="106.3447" y2="325.0941">
				<stop  offset="0" style="stop-color:#F08100"/>
				<stop  offset="0.6989" style="stop-color:#D51318"/>
			</linearGradient>
			<polygon class="st20" points="12.6,325.1 12.6,137.6 200.1,137.6 200.1,325.1 			"/>
		</g>
		<g>
			<defs>
				<path id="SVGID_49_" d="M148.3,200.9c0.6-0.4,2.3-1.5,2.6-1.7c0.6-0.6,1.8-1.9,2.8-3.6c1.3-2.2,1.9-4.5,1.7-6.7
					c-0.2-2.3-0.6-3.9-1-5.3c-0.4-1.3-0.7-2.4-0.7-3.8c0-0.6,0.1-1.1,0.2-1.6c-0.6,0.1-1.2,0.2-1.9,0.2l-0.3,0
					c-1.3,0-2.4-0.3-3.7-0.6c-1.6-0.4-3.4-0.8-6-0.9c-0.2,0-0.4,0-0.6,0c-2.4,0-4.7,0.5-6.7,1.6c-3,1.6-5.4,4.4-6.4,6.8
					c1.3,0.5,3.4,1.4,6.1,3c1.4,0.8,3.1,2,4.9,3.3C143.3,194.6,146.8,198.9,148.3,200.9z"/>
			</defs>
			<clipPath id="SVGID_50_">
				<use xlink:href="#SVGID_49_"  style="overflow:visible;"/>
			</clipPath>
			
				<linearGradient id="SVGID_51_" gradientUnits="userSpaceOnUse" x1="382.3138" y1="137.6327" x2="382.3138" y2="325.0941" gradientTransform="matrix(-1 0 0 1 497.746 0)">
				<stop  offset="0" style="stop-color:#F08100"/>
				<stop  offset="0.6989" style="stop-color:#D51318"/>
			</linearGradient>
			<polygon class="st21" points="209.2,325.1 209.2,137.6 21.7,137.6 21.7,325.1 			"/>
		</g>
	</g>
</g>
<g>
	<defs>
		<path id="SVGID_52_" d="M154.7,260.7c0,0,2.6,3.5,4.5,7.4c0.7,1.3,1.7,3.3,2.2,4.5c1.2,2.9,2,5.2,2,5.2c0,0,0.7,0,0.7,0
			c2.2,0,12.3-0.4,18-12.8c4.3-9.2,4.7-14.8,6.8-20.5c3.5-9.2,9-9.7,9-9.7s-4-0.1-6,0c-6.2,0.2-8.9,3.4-13.4,11.1
			c-0.2,0.4-0.4,0.6-0.5,0.8c-1.2,1.8-2.7,4.1-5.4,6.8c-5.3,5.4-12.9,6.7-16.9,7C155.7,260.6,155.3,260.7,154.7,260.7L154.7,260.7z"
			/>
	</defs>
	<clipPath id="SVGID_53_">
		<use xlink:href="#SVGID_52_"  style="overflow:visible;"/>
	</clipPath>
	<linearGradient id="SVGID_54_" gradientUnits="userSpaceOnUse" x1="110.9272" y1="140.9858" x2="110.9272" y2="321.2951">
		<stop  offset="0" style="stop-color:#F08100"/>
		<stop  offset="0.6989" style="stop-color:#D51318"/>
	</linearGradient>
	<rect x="20.8" y="141" class="st22" width="180.3" height="180.3"/>
</g>
<g>
	<defs>
		<path id="SVGID_55_" d="M66.8,260.7c0,0-2.6,3.5-4.5,7.4c-0.7,1.3-1.7,3.3-2.2,4.5c-1.2,2.9-2,5.2-2,5.2c0,0-0.7,0-0.7,0
			c-2.2,0-12.3-0.4-18-12.8c-4.3-9.2-4.7-14.8-6.8-20.5c-3.5-9.2-9-9.7-9-9.7s4-0.1,6,0c6.2,0.2,8.9,3.4,13.4,11.1
			c0.2,0.4,0.4,0.6,0.5,0.8c1.2,1.8,2.7,4.1,5.4,6.8c5.3,5.4,12.9,6.7,16.9,7C65.8,260.6,66.2,260.7,66.8,260.7L66.8,260.7z"/>
	</defs>
	<clipPath id="SVGID_56_">
		<use xlink:href="#SVGID_55_"  style="overflow:visible;"/>
	</clipPath>
	<linearGradient id="SVGID_57_" gradientUnits="userSpaceOnUse" x1="110.8119" y1="140.9858" x2="110.8119" y2="321.2951">
		<stop  offset="0" style="stop-color:#F08100"/>
		<stop  offset="0.6989" style="stop-color:#D51318"/>
	</linearGradient>
	<rect x="20.7" y="141" class="st23" width="180.3" height="180.3"/>
</g>
<g>
	<defs>
		<path id="SVGID_58_" d="M139.5,283.6c-1.6,8-6.5,15-13.6,19.2c-1,0.6-2.5,1.4-3.5,1.9c-3.6,1.9-11.5,5-11.7,14.5l0,0l0,0
			c-0.3-9.7-8.8-13.1-11.3-14.3c-1.4-0.7-3-1.6-3.5-1.8c-7.3-4.2-12.3-11.3-13.9-19.5c0,0,0,0-0.1,0c-3.3,1.6-7.6,3.2-12.9,4.6
			l0,0.2c0,0.1,0,0.2,0,0.4c0,2.3,1.2,10.6,14.2,16.1c10.1,4.2,17,4.8,21.8,7.2c4.9,2.4,5.6,7.5,5.6,7.5h0c0-1.3,0.7-5,5.6-7.5
			c4.9-2.4,11.7-3,21.8-7.2c12.7-5.3,14.1-13.4,14.2-15.9l0-0.8C152.5,288.1,146,286.7,139.5,283.6L139.5,283.6z"/>
	</defs>
	<clipPath id="SVGID_59_">
		<use xlink:href="#SVGID_58_"  style="overflow:visible;"/>
	</clipPath>
	<linearGradient id="SVGID_60_" gradientUnits="userSpaceOnUse" x1="111.3333" y1="140.9858" x2="111.3333" y2="321.2951">
		<stop  offset="0" style="stop-color:#F08100"/>
		<stop  offset="0.6989" style="stop-color:#D51318"/>
	</linearGradient>
	<rect x="21.2" y="141" class="st24" width="180.3" height="180.3"/>
</g>
<g>
	<defs>
		<path id="SVGID_61_" d="M142.3,281.4c0,0,1,0.3,1,0.4c1.1,0.5,8.1,3.5,18.9,4.8c0.1,0,0.2,0,0.2,0l0-0.3c0,0,0-0.1,0-0.1
			c-1.7-10.4-5.8-17-5.8-17s0.2-1.7-0.2-3.9c-0.3-1.8-1.7-4.7-1.7-4.7c0,0,0.7,0.9,1.1,1.6c0.8,1.4,4.2,5.1,7.9,16.3
			c1.1,3.4,2.3,7.6,3.5,12.4c0,0.1,0.1,0.4,0.1,0.4s-0.4-0.1-0.5-0.1c-24.4-4.6-28.5-8.5-32.2-10.7c-1.1-0.7-2-1.8-2-1.8
			s3.2,2,6.6,2.5C140.4,281.5,142.3,281.4,142.3,281.4z"/>
	</defs>
	<clipPath id="SVGID_62_">
		<use xlink:href="#SVGID_61_"  style="overflow:visible;"/>
	</clipPath>
	<linearGradient id="SVGID_63_" gradientUnits="userSpaceOnUse" x1="110.9272" y1="140.9858" x2="110.9272" y2="321.2951">
		<stop  offset="0" style="stop-color:#F08100"/>
		<stop  offset="0.6989" style="stop-color:#D51318"/>
	</linearGradient>
	<rect x="20.8" y="141" class="st25" width="180.3" height="180.3"/>
</g>
<g>
	<defs>
		<path id="SVGID_64_" d="M146.6,280.9c2.1-0.4,3.6-1,5.3-0.9c2.2,0.1,3.7,0.6,4.7,1.4c0.2,0.2,0.4,0.3,0.5,0.4l-0.7-0.7
			c-0.1-0.1-0.1-0.1-0.2-0.2c-0.8-1-1.3-1.8-1.3-3.5c0-1.6,0.6-3,1.1-5l0.1-0.3l0.3,0.5c1.2,2.6,2.9,6.7,4,12
			c-5.8-0.9-10.3-2.2-13.1-3.2c0,0-0.6-0.2-1-0.4L146.6,280.9z"/>
	</defs>
	<clipPath id="SVGID_65_">
		<use xlink:href="#SVGID_64_"  style="overflow:visible;"/>
	</clipPath>
	<linearGradient id="SVGID_66_" gradientUnits="userSpaceOnUse" x1="110.9272" y1="140.9858" x2="110.9272" y2="321.2951">
		<stop  offset="0" style="stop-color:#F08100"/>
		<stop  offset="0.6989" style="stop-color:#D51318"/>
	</linearGradient>
	<rect x="20.8" y="141" class="st26" width="180.3" height="180.3"/>
</g>
<g>
	<defs>
		<path id="SVGID_67_" d="M79.3,281.4c0,0-1,0.3-1,0.4c-1.1,0.5-8.1,3.5-18.9,4.8c-0.1,0-0.2,0-0.2,0l0-0.3c0,0,0-0.1,0-0.1
			c1.7-10.4,5.8-17,5.8-17s-0.2-1.7,0.2-3.9c0.3-1.8,1.6-4.7,1.6-4.7c0,0-0.8,0.9-1.2,1.7c-0.8,1.4-5.1,7.4-7.7,16.3
			c-1,3.4-2.3,7.4-3.4,12.3c0,0.1-0.1,0.4-0.1,0.4s0.4-0.1,0.5-0.1c24.4-4.6,27.7-8,31.6-10.3c0.7-0.4,2-1.7,2-1.7s-2.7,1.5-6,2
			C81.1,281.5,79.3,281.4,79.3,281.4z"/>
	</defs>
	<clipPath id="SVGID_68_">
		<use xlink:href="#SVGID_67_"  style="overflow:visible;"/>
	</clipPath>
	<linearGradient id="SVGID_69_" gradientUnits="userSpaceOnUse" x1="110.8128" y1="140.9858" x2="110.8128" y2="321.2951">
		<stop  offset="0" style="stop-color:#F08100"/>
		<stop  offset="0.6989" style="stop-color:#D51318"/>
	</linearGradient>
	<rect x="20.7" y="141" class="st27" width="180.3" height="180.3"/>
</g>
<g>
	<defs>
		<path id="SVGID_70_" d="M75,280.9c-2.1-0.4-3.6-1-5.3-0.9c-2.2,0.1-3.7,0.6-4.7,1.4c-0.2,0.2-0.4,0.3-0.5,0.4l0.7-0.7
			c0.1-0.1,0.1-0.1,0.2-0.2c0.8-1,1.3-1.8,1.3-3.5c0-1.6-0.6-3-1.1-5l-0.1-0.3l-0.3,0.5c-1.2,2.6-2.9,6.7-4,12
			c5.8-0.9,10.3-2.2,13.1-3.2c0,0,0.6-0.2,1-0.4L75,280.9z"/>
	</defs>
	<clipPath id="SVGID_71_">
		<use xlink:href="#SVGID_70_"  style="overflow:visible;"/>
	</clipPath>
	<linearGradient id="SVGID_72_" gradientUnits="userSpaceOnUse" x1="110.9272" y1="140.9858" x2="110.9272" y2="321.2951">
		<stop  offset="0" style="stop-color:#F08100"/>
		<stop  offset="0.6989" style="stop-color:#D51318"/>
	</linearGradient>
	<rect x="20.8" y="141" class="st28" width="180.3" height="180.3"/>
</g>
<g>
	<defs>
		<path id="SVGID_73_" d="M93.5,274.2c-0.1,1.6-0.1,3.1,0,4.1c0.2,2.9,1.3,9.9,8.5,14c0.5,0.3,1.1,0.6,1.6,0.9
			c2.2,1.1,5.8,3.2,7.1,9.1c0,0.2,0.4,0.2,0.4-0.1c1.3-6,4-7.5,6.5-8.8c0.7-0.4,1.4-0.8,2.1-1.2c6.7-4.1,8.1-10.5,8.4-14
			c0-0.4,0.1-2.2,0-4c0,0,1.1,1.6,2.2,2.7c1.6,1.5,3.3,3,6,4.9c0,0.1-0.5,2-0.5,2.1c-1.7,6.6-5.9,12.4-11.7,15.9
			c-0.9,0.5-2.2,1.2-3.2,1.7l-0.1,0.1c-0.3,0.1-0.6,0.3-0.9,0.4c-2.5,1.2-7.3,3.7-9.2,8.3c-1.8-4.6-7.1-7.4-9-8.3
			c-0.2-0.1-0.4-0.2-0.6-0.3c-2-1.1-3.1-1.6-3.4-1.8c-6.1-3.5-10.5-9.5-12.1-16.4l-0.4-1.8c2.3-1.6,4.7-3.6,6.3-5.3
			C92.5,275.6,93.5,274.2,93.5,274.2z"/>
	</defs>
	<clipPath id="SVGID_74_">
		<use xlink:href="#SVGID_73_"  style="overflow:visible;"/>
	</clipPath>
	<linearGradient id="SVGID_75_" gradientUnits="userSpaceOnUse" x1="110.8666" y1="140.9858" x2="110.8666" y2="321.2951">
		<stop  offset="0" style="stop-color:#F08100"/>
		<stop  offset="0.6989" style="stop-color:#D51318"/>
	</linearGradient>
	<rect x="20.7" y="141" class="st29" width="180.3" height="180.3"/>
</g>
<g>
	<defs>
		<path id="SVGID_76_" d="M126.1,272.6c0.5,2.3,0.4,4.9,0.3,5.6c-0.2,2.5-1.2,8.8-7.6,12.6c-3.3,2-7.1,3-7.9,7.4
			c-0.1,0.4-0.2,0.4-0.3,0c-0.8-4.4-5-5.7-7.9-7.3c-6.4-3.7-7.5-10.1-7.6-12.6c0-0.7-0.1-3.3,0.2-5.6c0,0,5.9,2.4,15.2,2.6
			C119,275.3,126.1,272.6,126.1,272.6z"/>
	</defs>
	<clipPath id="SVGID_77_">
		<use xlink:href="#SVGID_76_"  style="overflow:visible;"/>
	</clipPath>
	<linearGradient id="SVGID_78_" gradientUnits="userSpaceOnUse" x1="110.8666" y1="140.9858" x2="110.8666" y2="321.2951">
		<stop  offset="0" style="stop-color:#F08100"/>
		<stop  offset="0.6989" style="stop-color:#D51318"/>
	</linearGradient>
	<rect x="20.7" y="141" class="st30" width="180.3" height="180.3"/>
</g>
<g>
	<defs>
		<path id="SVGID_79_" d="M148.2,256.2c0.6,0.4,2.3,1.5,2.6,1.7c0.6,0.6,1.8,1.9,2.8,3.6c1.3,2.2,1.9,4.5,1.7,6.7
			c-0.2,2.3-0.6,3.9-1,5.3c-0.4,1.3-0.7,2.4-0.7,3.8c0,0.6,0.1,1.1,0.2,1.6c-0.6-0.1-1.2-0.2-1.9-0.2l-0.3,0c-1.3,0-2.4,0.3-3.7,0.6
			c-1.6,0.4-3.4,0.8-6,0.9c-0.2,0-0.4,0-0.6,0c-2.4,0-4.7-0.5-6.7-1.6c-3-1.6-5.4-4.4-6.4-6.8c1.3-0.5,3.4-1.4,6.1-3
			c1.4-0.8,3.1-2,4.9-3.3C143.3,262.5,146.7,258.2,148.2,256.2z"/>
	</defs>
	<clipPath id="SVGID_80_">
		<use xlink:href="#SVGID_79_"  style="overflow:visible;"/>
	</clipPath>
	<linearGradient id="SVGID_81_" gradientUnits="userSpaceOnUse" x1="111.3333" y1="140.9858" x2="111.3333" y2="321.2951">
		<stop  offset="0" style="stop-color:#F08100"/>
		<stop  offset="0.6989" style="stop-color:#D51318"/>
	</linearGradient>
	<rect x="21.2" y="141" class="st31" width="180.3" height="180.3"/>
</g>
<g>
	<defs>
		<path id="SVGID_82_" d="M73.5,256.2c-0.6,0.4-2.3,1.5-2.6,1.7c-0.6,0.6-1.8,1.9-2.8,3.6c-1.3,2.2-1.9,4.5-1.7,6.7
			c0.2,2.3,0.6,3.9,1,5.3c0.4,1.3,0.7,2.4,0.7,3.8c0,0.6-0.1,1.1-0.2,1.6c0.6-0.1,1.2-0.2,1.9-0.2l0.3,0c1.3,0,2.4,0.3,3.7,0.6
			c1.6,0.4,3.4,0.8,6,0.9c0.2,0,0.4,0,0.6,0c2.4,0,4.7-0.5,6.7-1.6c3-1.6,5.4-4.4,6.4-6.8c-1.3-0.5-3.4-1.4-6.1-3
			c-1.4-0.8-3.1-2-4.9-3.3C78.4,262.5,75,258.2,73.5,256.2z"/>
	</defs>
	<clipPath id="SVGID_83_">
		<use xlink:href="#SVGID_82_"  style="overflow:visible;"/>
	</clipPath>
	<linearGradient id="SVGID_84_" gradientUnits="userSpaceOnUse" x1="110.9272" y1="140.9858" x2="110.9272" y2="321.2951">
		<stop  offset="0" style="stop-color:#F08100"/>
		<stop  offset="0.6989" style="stop-color:#D51318"/>
	</linearGradient>
	<rect x="20.8" y="141" class="st32" width="180.3" height="180.3"/>
</g>
<rect x="100.6" y="219.8" class="st33" width="27" height="20.5"/>
<text transform="matrix(1 0 0 1 100.622 237.7761)" class="st34 st35 st36">M</text>
<path class="st34" d="M119.7,221.2h-17.3c0,0-0.1,0-0.1-0.1v-0.4c0,0,0-0.1,0.1-0.1h17.3c0,0,0.1,0,0.1,0.1L119.7,221.2
	C119.8,221.1,119.8,221.2,119.7,221.2z"/>
<line class="st37" x1="216.2" y1="228.2" x2="437.8" y2="228.2"/>
</svg>
